<svg width="39" height="38" viewBox="0 0 39 38" fill="none" xmlns="http://www.w3.org/2000/svg">
<g opacity="0.9">
<path d="M36.4038 19C36.4038 28.6119 28.6233 36.4 19.0302 36.4C9.43716 36.4 1.65664 28.6119 1.65664 19C1.65664 9.38815 9.43716 1.6 19.0302 1.6C28.6233 1.6 36.4038 9.38815 36.4038 19Z" stroke="#12161D" stroke-width="3.2"/>
<path d="M24.695 28.127C25.3542 28.127 26.0895 28.0381 26.4445 27.9111V25.2578C26.2797 25.3086 25.9628 25.3594 25.6839 25.3594C24.8345 25.3594 24.4541 25.0039 24.0484 23.8994L20.1564 13.4258C18.7238 9.42676 17.6589 8.36035 15.0219 8.36035C14.5148 8.36035 13.8049 8.43652 13.3612 8.57617V11.2295C13.6781 11.1533 13.919 11.1279 14.1472 11.1279C15.6939 11.1279 16.3151 11.6357 17.0504 13.5527L17.5194 14.7842L11.8398 28H15.4403L18.8252 19.291H19.0281L21.234 25.5117C21.8932 27.4541 22.7173 28.127 24.695 28.127Z" fill="#12161D"/>
</g>
</svg>
