<svg width="184" height="64" viewBox="0 0 184 64" fill="none" xmlns="http://www.w3.org/2000/svg">
<path fill-rule="evenodd" clip-rule="evenodd" d="M98.8302 41.7908H108.724V14.001H98.8315V41.7931L98.8302 41.7908ZM85.7048 14.001L79.2987 39.8985L72.8939 14H63L69.8741 41.7921H88.7259L95.5977 14H85.7048V14.001Z" fill="#ED303B"/>
<path fill-rule="evenodd" clip-rule="evenodd" d="M109.62 50.7587C109.62 53.73 107.212 56.138 104.241 56.138C101.269 56.138 98.8613 53.73 98.8613 50.7587C98.8613 47.7887 101.269 45.3794 104.241 45.3794C107.212 45.3794 109.62 47.7874 109.62 50.7587Z" fill="#FFD300"/>
<path d="M111.305 16.6897V14.3176H110.518V14.0004H112.41V14.3176H111.62V16.6897H111.305ZM112.723 16.6897V14.0002H113.199L113.763 15.9046C113.815 16.082 113.854 16.2148 113.877 16.3023C113.905 16.2048 113.946 16.061 114.004 15.8711L114.575 14H115V16.6894H114.696V14.4385L114.002 16.6897H113.718L113.027 14.3999V16.6897H112.723Z" fill="#ED303B"/>
</svg>
