<svg width="40" height="40" viewBox="0 0 40 40" fill="none" xmlns="http://www.w3.org/2000/svg">
<path fill-rule="evenodd" clip-rule="evenodd" d="M0 19.9393C0 8.92691 8.92727 0 19.9393 0C30.9513 0 39.8785 8.92691 39.8785 19.9393C39.8785 30.9513 30.9513 39.8785 19.9393 39.8785C8.92727 39.8785 0 30.9513 0 19.9393Z" fill="#005983"/>
<path fill-rule="evenodd" clip-rule="evenodd" d="M10.2088 29.4666H14.8088V15.6281H10.2088V29.4666ZM12.5389 8.95752C10.9648 8.95752 9.9353 9.99061 9.9353 11.3481C9.9353 12.6768 10.9353 13.7397 12.4786 13.7397H12.5084C14.1135 13.7397 15.1113 12.6768 15.1113 11.3481C15.0808 9.99061 14.1135 8.95752 12.5389 8.95752ZM31.3978 21.5306V29.4666H26.7968V22.063C26.7968 20.2033 26.1324 18.9339 24.4666 18.9339C23.1953 18.9339 22.44 19.7888 22.1066 20.6164C21.9855 20.9121 21.9542 21.323 21.9542 21.7379V29.4666H17.3528C17.3528 29.4666 17.4146 16.9266 17.3528 15.6281H21.9542V17.5892L21.9237 17.6346H21.9542V17.5892C22.5658 16.6481 23.6564 15.3033 26.1008 15.3033C29.1284 15.3033 31.3978 17.2808 31.3978 21.5306Z" fill="#F1F2F2"/>
</svg>
