<svg width="184" height="64" viewBox="0 0 184 64" fill="none" xmlns="http://www.w3.org/2000/svg">
<path d="M6.1417 30.3699C5.98471 31.3006 5.48011 32.0295 4.85216 32.7023C4.36998 33.2181 3.75325 33.1732 3.15894 33.0162C1.71241 32.6462 0.905052 31.6706 0.33317 30.2914C0.176183 29.9214 0.378024 30.4147 0.120116 29.7756C0.120116 29.7195 0.00798273 29.2261 0.00798273 29.1701C-0.00323064 28.8449 -0.0256578 28.4636 0.131329 27.9142C0.613504 24.2586 2.5422 21.388 5.12128 18.8762C5.54739 18.4613 5.96228 18.0015 6.51174 17.7324C6.63508 18.2482 6.19776 18.4613 5.93985 18.7416C4.17936 20.6255 2.94589 22.7672 2.46371 25.3127C2.30672 26.1424 2.34036 26.961 2.60948 27.7572C3.02438 28.9458 3.82053 29.7083 5.06521 29.9886C5.43525 30.0783 5.83893 30.0783 6.1417 30.3699Z" fill="#F89C28"/>
<path d="M47.923 48.9393C47.7324 48.9505 47.5418 48.9729 47.34 48.9729C34.2764 48.9729 21.2128 48.9729 8.13801 48.9729C7.91375 48.9729 7.70069 48.9505 7.47643 48.9393C7.39793 48.8159 7.39793 48.6814 7.39793 48.5468C7.39793 45.2389 7.40915 41.9309 7.38672 38.623C7.38672 38.1296 7.49885 37.9502 8.02588 37.9502C21.2464 37.9614 34.4558 37.9614 47.6764 37.9614C47.7661 37.9614 47.8446 37.9838 47.923 38.0063C48.2258 38.3202 48.181 38.7239 48.181 39.1052C48.1922 42.0206 48.1922 44.9473 48.181 47.8628C48.181 48.2329 48.2146 48.6253 47.923 48.9393Z" fill="#39569A"/>
<path d="M139.255 23.1486C138.773 22.9468 136.833 23.1038 135.622 23.0589C135.05 23.0365 135.229 23.485 135.229 23.7766C135.218 26.6696 135.185 29.5739 135.241 32.4669C135.252 33.2967 135.016 33.4873 134.22 33.4537C132.83 33.3864 132.83 33.4313 132.83 32.0408C132.83 29.2823 132.807 26.5238 132.841 23.7654C132.852 23.1262 132.65 22.958 132.045 22.9916C131.215 23.0477 130.385 23.0365 129.556 22.9916C128.984 22.958 128.793 23.1262 128.804 23.7205C128.838 26.5575 128.827 29.4057 128.804 32.2427C128.804 32.6351 129.107 33.2855 128.558 33.3752C127.918 33.4873 127.178 33.6555 126.584 32.9379C124.846 30.8298 123.029 28.7777 121.246 26.7033C120.809 26.1874 120.361 25.6828 119.766 24.9988C119.766 26.5238 119.766 27.8246 119.766 29.1366C119.766 30.3812 119.744 31.6259 119.777 32.8594C119.789 33.3416 119.688 33.5434 119.138 33.5322C116.391 33.4761 113.655 33.4537 110.908 33.4537C110.381 33.4537 110.179 33.3191 110.201 32.7585C110.246 31.7044 110.212 30.6391 110.212 29.372C110.044 29.6187 109.988 29.6748 109.966 29.7421C109.181 31.8838 107.555 32.9379 105.368 33.3079C103.552 33.6107 101.735 33.6219 99.8737 33.4761C100.737 32.3884 100.737 32.4109 101.959 32.3884C102.677 32.3772 103.406 32.3436 104.112 32.2202C107.342 31.6596 109.091 27.6228 107.331 24.8306C106.68 23.7878 105.637 23.3729 104.494 23.1486C103.675 22.9916 102.845 22.9916 102.004 22.9916C101.477 22.9916 101.287 23.1374 101.309 23.6981C101.354 25.0997 101.354 26.5126 101.331 27.9143C101.32 28.7105 101.231 29.5066 101.141 30.3028C101.006 31.5138 100.39 32.3884 99.2794 32.9491C97.2722 33.9695 95.2314 34.0368 93.1793 33.1846C91.587 32.523 90.7685 31.2559 90.7348 29.5627C90.69 27.163 90.7236 24.7633 90.7012 22.3637C90.7012 21.9824 90.8133 21.8254 91.217 21.8367C93.1008 21.8815 92.6859 21.59 92.7756 23.2608C92.899 25.4922 92.6411 27.7349 92.9887 29.9551C93.2354 31.5474 94.054 32.3212 95.5341 32.4221C97.3619 32.5454 98.4608 31.8614 98.9318 30.314C99.1673 29.5402 99.1897 28.7441 99.2009 27.9367C99.2009 26.1202 99.2009 24.2924 99.2121 22.4758C99.2121 22.1843 99.1224 21.8367 99.627 21.8479C101.701 21.8815 103.787 21.6909 105.85 22.0609C107.802 22.4085 109.136 23.5187 110.033 25.324C110.033 24.3821 110.055 23.4402 110.022 22.4982C110.011 21.9936 110.1 21.7582 110.695 21.7694C112.713 21.803 114.743 21.7918 116.772 21.7806C117.243 21.7806 117.467 21.8479 117.467 22.3973C117.467 22.9356 117.266 23.0365 116.783 23.0253C115.483 23.0028 114.182 23.0365 112.87 23.0028C112.388 22.9916 112.164 23.1038 112.186 23.6308C112.22 24.483 112.22 25.3464 112.164 26.1987C112.13 26.7369 112.354 26.8378 112.836 26.8266C114.081 26.793 115.337 26.8378 116.582 26.8042C117.064 26.793 117.187 26.9612 117.187 27.4209C117.187 27.8919 117.12 28.1274 116.559 28.1049C115.315 28.0601 114.059 28.1161 112.814 28.0825C112.298 28.0713 112.141 28.2283 112.164 28.7329C112.197 29.7197 112.186 30.7176 112.164 31.7156C112.152 32.0969 112.276 32.2539 112.679 32.2427C114.317 32.2202 115.954 32.2202 117.591 32.2427C118.163 32.2539 118.118 31.9287 118.118 31.5586C118.118 28.688 118.107 25.8174 118.129 22.9468C118.129 22.5767 117.882 21.9488 118.331 21.8591C118.948 21.7357 119.643 21.6012 120.215 22.2852C122.054 24.4942 123.96 26.6472 125.833 28.8226C126.191 29.2375 126.55 29.6412 127.066 30.2355C127.066 28.9459 127.066 27.8919 127.066 26.8266C127.066 25.3352 127.077 23.8438 127.055 22.3525C127.044 21.9264 127.178 21.7918 127.616 21.7918C131.327 21.803 135.05 21.803 138.762 21.7918C139.221 21.7918 139.289 21.96 139.3 22.3749C139.311 22.7113 139.266 22.9244 139.244 23.1935C139.244 23.171 139.255 23.1486 139.255 23.1486Z" fill="#EC1D24"/>
<path d="M6.14122 30.3701C2.56416 30.2467 1.62223 27.3425 2.4296 24.4046C3.04633 22.1507 4.23495 20.2332 5.83846 18.54C6.08516 18.2821 6.39913 18.0914 6.52248 17.7214C8.3054 16.2412 10.2902 15.1872 12.6338 15.019C16.4575 14.7387 17.7919 17.6093 17.3994 20.5584C17.3546 20.8499 17.2425 21.1415 17.164 21.433C16.6145 23.2496 15.6277 24.8083 14.2933 26.1651C13.0935 27.3873 11.86 28.5647 10.3238 29.3609C9.92013 29.5739 9.53887 29.8991 9.02306 29.7309C9.21368 27.5107 10.021 25.4586 10.7275 23.3729C10.8845 22.902 11.0863 22.4422 11.2321 21.9713C11.4564 21.2536 11.1648 20.7939 10.4135 20.6593C9.96498 20.5808 9.51645 20.6369 9.11276 20.8387C7.66624 21.5564 6.36549 22.4871 5.18809 23.586C4.97503 23.7878 4.64984 24.057 4.84047 24.3485C5.05353 24.6737 5.37871 24.3709 5.65905 24.2812C5.97302 24.1803 6.287 24.0345 6.61218 24.0009C7.10557 23.956 7.50925 24.1467 7.49804 24.7298C7.44197 26.7033 7.0495 28.5984 6.14122 30.3701Z" fill="#AE2A30"/>
<path d="M60.4022 28.9462C59.6285 31.0094 58.2268 32.2653 56.2757 32.8709C54.0666 33.5549 51.8015 33.6894 49.5476 33.2185C46.8676 32.6578 45.7127 30.83 46.2397 28.15C46.9461 24.5954 49.7607 22.0051 53.4835 21.4669C55.2328 21.2202 56.9709 21.1977 58.6865 21.6575C60.4582 22.1285 61.3777 23.3395 61.2095 24.8533C61.1647 25.2906 61.0077 25.47 60.5367 25.4476C59.4827 25.414 58.4286 25.4252 57.3746 25.4476C56.9597 25.4588 56.7915 25.3467 56.7578 24.9094C56.713 24.2254 56.242 23.8777 55.6141 23.7993C54.2124 23.6198 52.9565 23.945 51.9809 24.9991C50.983 26.0756 50.5008 27.3875 50.4447 28.8341C50.3999 30.0675 51.0502 30.8076 52.2501 31.0207C53.6854 31.2786 55.0758 30.7067 55.8383 29.4732C56.085 29.0695 56.3429 28.9125 56.8139 28.9238C57.9689 28.9686 59.1351 28.9462 60.4022 28.9462Z" fill="#005B76"/>
<path d="M38.3687 28.9458C37.8192 30.6278 36.7652 31.8052 35.2513 32.478C32.6386 33.633 29.8801 33.8236 27.1217 33.0835C24.7108 32.4444 23.7016 30.6166 24.2174 28.1945C25.1145 24.0456 28.3215 21.5001 32.9078 21.3095C34.3543 21.2534 35.8008 21.3095 37.1688 21.8141C38.6378 22.3636 39.3442 23.4737 39.1648 24.8754C39.12 25.2454 39.0639 25.4697 38.5817 25.4472C37.5052 25.4024 36.4175 25.4248 35.3411 25.436C35.0046 25.436 34.7804 25.436 34.758 24.9763C34.7243 24.225 34.2197 23.8549 33.5133 23.7764C32.1452 23.6195 30.9118 23.9559 29.9586 24.9875C28.9046 26.1425 28.4 27.5105 28.4336 29.0692C28.456 30.0559 28.9606 30.6502 29.9138 30.9194C31.4276 31.3567 32.9862 30.796 33.816 29.4616C34.0627 29.0579 34.3319 28.901 34.7916 28.9234C35.9578 28.9682 37.124 28.9458 38.3687 28.9458Z" fill="#005B76"/>
<path d="M127.291 48.9392C125.687 48.9392 124.072 48.9392 122.469 48.9392C122.166 48.6252 122.2 48.2328 122.2 47.8515C122.189 44.9248 122.189 41.9869 122.2 39.0602C122.2 38.7014 122.177 38.3426 122.413 38.0398C124.039 37.8716 125.665 37.9501 127.291 37.995C127.706 38.5332 127.571 39.1612 127.537 39.7555C127.425 42.4018 127.605 45.0482 127.549 47.6833C127.549 48.1094 127.627 48.5692 127.291 48.9392Z" fill="#F37E56"/>
<path d="M46.4088 21.287C45.6575 24.0343 44.9286 26.7031 44.1997 29.3831C43.8858 30.5493 43.5494 31.7155 43.2466 32.8817C43.1569 33.2293 43.0335 33.4535 42.585 33.4423C41.5085 33.4087 40.4208 33.4087 39.3443 33.4423C38.8061 33.4647 38.8397 33.2293 38.9407 32.848C39.9723 29.1588 40.9927 25.4808 42.0131 21.7916C42.1028 21.4777 42.1925 21.2646 42.5962 21.2758C43.8409 21.3095 45.0856 21.287 46.4088 21.287Z" fill="#005B76"/>
<path d="M16.7832 33.4311C17.8821 29.4616 18.9474 25.593 20.0127 21.7244C20.0799 21.4777 20.1472 21.2759 20.4948 21.2871C21.7619 21.3095 23.0403 21.2983 24.3971 21.2983C23.9037 23.07 23.4439 24.7632 22.973 26.4564C22.4011 28.5533 21.818 30.6502 21.2686 32.7471C21.1452 33.2405 20.9546 33.476 20.3827 33.4536C19.2389 33.3975 18.084 33.4311 16.7832 33.4311Z" fill="#005B76"/>
<path d="M68.4102 21.2871C67.6477 24.0905 66.8964 26.8153 66.1563 29.5401C65.8535 30.6503 65.5283 31.7604 65.2368 32.8817C65.1471 33.2518 65.0125 33.4536 64.5864 33.4424C63.5099 33.42 62.4335 33.42 61.3458 33.4424C60.9197 33.4536 60.8075 33.3078 60.9197 32.9154C61.9625 29.1813 63.0053 25.4473 64.037 21.7132C64.1155 21.4329 64.2164 21.2871 64.5304 21.2871C65.7975 21.2983 67.0758 21.2871 68.4102 21.2871Z" fill="#005B76"/>
<path d="M122.468 38.029C122.468 41.6622 122.468 45.3065 122.468 48.9396C121.695 48.9396 120.921 48.9396 120.136 48.9396C119.665 47.7847 119.867 46.596 120.001 45.4186C120.842 45.015 120.999 44.3085 120.91 43.4563C120.854 42.9405 120.921 42.4134 120.887 41.8976C120.865 41.4827 120.73 41.18 120.226 41.3706C119.912 41.6285 120.069 41.9761 120.024 42.2901C119.979 42.6265 120.091 43.019 119.699 43.232C119.328 43.2545 119.172 42.9629 118.992 42.7386C118.712 42.4022 118.465 42.0322 118.185 41.6958C117.96 41.4379 117.691 41.2024 117.333 41.3258C116.962 41.4491 117.052 41.8191 117.041 42.1107C117.03 42.8844 117.041 43.6469 117.03 44.4206C117.03 44.7234 117.052 45.0262 116.862 45.2953C116.772 45.3626 116.682 45.3626 116.604 45.2841C116.379 45.0037 116.402 44.6673 116.391 44.3421C116.357 42.5592 116.447 40.7763 116.391 38.9934C116.379 38.6458 116.357 38.2757 116.66 37.9954C118.6 37.9617 120.528 37.8608 122.468 38.029Z" fill="#F37D54"/>
<path d="M102.162 48.9392C101.389 48.9392 100.615 48.9392 99.8299 48.9392C99.3702 48.2104 99.6169 47.403 99.6056 46.6405C99.5944 46.035 99.4599 45.5865 98.8656 45.3622C98.8207 44.7118 99.4823 45.1491 99.6841 44.7791C99.729 44.6221 99.5832 44.4763 99.4711 44.3306C99.0898 43.8484 99.0562 43.4559 99.572 43.0074C100.054 42.5813 100.043 42.0542 99.6169 41.5608C99.4374 41.359 99.2132 41.1796 99.2356 40.8656C99.258 40.3162 99.258 39.7667 99.258 39.206C99.2468 38.3426 99.1908 38.2865 98.2937 38.2753C97.8451 38.2641 97.4078 38.2865 96.9593 38.2753C96.3089 38.2978 95.6697 38.2978 95.0194 38.2753C94.5148 38.2865 94.0102 38.2978 93.5056 38.2753C92.7991 38.2865 92.1039 38.2978 91.3975 38.2753C91.0498 38.2753 90.7134 38.2978 90.3658 38.2753C89.9285 38.2753 89.5024 38.2865 89.0651 38.2641C88.8408 38.2193 88.5605 38.2417 88.5156 37.9165C92.3394 37.9165 96.1744 37.9165 99.9981 37.9165C100.738 38.1183 101.523 37.7819 102.252 38.1183C102.443 38.4435 102.42 38.8024 102.42 39.1612C102.42 42.043 102.431 44.9136 102.42 47.7955C102.431 48.1767 102.487 48.6028 102.162 48.9392Z" fill="#F05D43"/>
<path d="M133.111 48.9396C132.113 48.9396 131.115 48.9396 130.117 48.9396C129.624 47.8071 129.893 46.6409 129.938 45.4859C130.308 45.0149 130.622 44.5103 130.655 43.8824C130.992 43.3666 130.936 42.8395 130.655 42.3125C130.633 41.7518 130.341 41.2697 130.218 40.7314C130.375 40.1371 130.375 39.5428 130.386 38.9373C130.386 38.5897 130.33 38.2084 130.678 37.9617C131.508 37.9842 132.349 37.8384 133.178 38.0402C133.425 38.3766 133.391 38.7803 133.391 39.1616C133.403 42.0322 133.403 44.8916 133.391 47.7622C133.38 48.1659 133.436 48.6032 133.111 48.9396Z" fill="#F4845D"/>
<path d="M47.9228 38.029C34.7808 38.029 21.6387 38.0402 8.50783 38.0066C7.62197 38.0066 7.46498 38.2757 7.4762 39.0831C7.52105 42.3686 7.49862 45.6541 7.49862 48.9284C7.20708 48.7602 7.35285 48.4799 7.35285 48.2668C7.34164 45.0374 7.35285 41.8191 7.34164 38.5897C7.34164 38.1187 7.36406 37.8496 7.9808 37.8496C21.7508 37.872 35.5096 37.872 49.2796 37.872C49.3357 37.872 49.3918 37.8832 49.4478 37.8945C49.8627 38.0739 50.3673 37.7375 50.7374 38.1524C50.8495 38.3766 50.8719 38.6345 50.8719 38.8812C50.8832 41.9313 50.8832 44.9701 50.8719 48.0201C50.8719 48.3453 50.8719 48.6817 50.614 48.9508C50.1094 48.9508 49.616 48.9508 49.1114 48.9508C48.7863 48.5808 48.8535 48.1323 48.8535 47.6949C48.8423 45.015 48.8311 42.3237 48.8647 39.6437C48.8423 38.87 48.719 38.2757 47.9228 38.029Z" fill="#425595"/>
<path d="M106.154 48.9395C105.493 48.9395 104.82 48.9395 104.158 48.9395C103.856 48.6255 103.889 48.2219 103.889 47.8406C103.878 44.9251 103.878 41.9984 103.889 39.083C103.889 38.7241 103.867 38.3653 104.091 38.0513C104.887 37.8383 105.683 37.9616 106.48 37.9841C106.805 38.3205 106.726 38.7466 106.737 39.139C106.76 40.5856 106.715 42.0209 106.76 43.4562C106.894 43.9384 106.737 44.3645 106.524 44.7906C106.367 45.0261 106.423 45.2952 106.423 45.5531C106.367 46.3492 106.401 47.1342 106.39 47.9303C106.401 48.2891 106.435 48.648 106.154 48.9395Z" fill="#F16548"/>
<path d="M91.3517 38.0288C92.0694 38.0288 92.7983 38.0288 93.5159 38.0288C93.7963 38.3428 93.785 38.7352 93.785 39.1165C93.7963 42.0208 93.7963 44.9362 93.785 47.8405C93.785 48.2218 93.8187 48.6142 93.5159 48.9282C92.7983 48.9282 92.0694 48.9282 91.3517 48.9282C91.049 48.6142 91.0826 48.2218 91.0826 47.8405C91.0714 44.9362 91.0714 42.0208 91.0826 39.1165C91.0826 38.7352 91.0602 38.3428 91.3517 38.0288Z" fill="#EF4E3C"/>
<path d="M114.811 48.9396C114.093 48.9396 113.364 48.9396 112.647 48.9396C112.344 48.6256 112.378 48.222 112.378 47.8407C112.366 44.914 112.366 41.9985 112.378 39.0718C112.378 38.713 112.355 38.3542 112.579 38.0402C113.331 37.872 114.082 37.9056 114.844 38.0178C115.102 38.343 115.069 38.7467 115.069 39.1279C115.08 42.0097 115.08 44.8916 115.069 47.7622C115.08 48.1771 115.125 48.6032 114.811 48.9396Z" fill="#F37650"/>
<path d="M133.111 48.9394C133.111 45.3062 133.111 41.6619 133.111 38.0288C133.851 37.9054 134.591 37.883 135.332 38.04C135.578 38.3764 135.545 38.7801 135.545 39.1613C135.556 42.0319 135.556 44.8913 135.545 47.762C135.545 48.1656 135.601 48.603 135.276 48.9394C134.558 48.9394 133.84 48.9394 133.111 48.9394Z" fill="#F48660"/>
<path d="M95.008 38.0288C95.6696 38.0288 96.3424 38.0288 97.004 38.0288C97.4749 39.0268 97.2619 40.0472 97.1161 41.0676C97.1273 42.3572 96.9816 43.6579 97.2058 44.9475C97.8001 46.2594 97.7441 47.5938 97.3404 48.9394C96.5667 48.9394 95.7929 48.9394 95.008 48.9394C94.7052 48.6254 94.7389 48.233 94.7389 47.8517C94.7277 44.9475 94.7277 42.032 94.7389 39.1277C94.7389 38.7353 94.7277 38.3428 95.008 38.0288Z" fill="#F0543F"/>
<path d="M104.158 38.0287C104.158 41.6618 104.158 45.3061 104.158 48.9393C103.496 48.9393 102.824 48.9393 102.162 48.9393C102.162 45.3061 102.162 41.6618 102.162 38.0287C102.835 37.8941 103.496 37.8941 104.158 38.0287Z" fill="#F16246"/>
<path d="M135.273 48.9396C135.273 45.3064 135.273 41.6621 135.273 38.029C135.296 38.0178 135.318 37.9953 135.352 37.9953C137.539 37.8944 137.337 37.7374 137.37 39.7222C137.37 40.081 137.415 40.4286 137.415 40.7875C137.269 42.077 137.37 43.3777 137.348 44.6673C137.348 44.9252 137.482 45.1383 137.583 45.3625C137.696 46.5623 137.931 47.7622 137.438 48.9396C136.72 48.9396 136.002 48.9396 135.273 48.9396Z" fill="#F48863"/>
<path d="M114.811 48.9393C114.811 45.3061 114.811 41.6618 114.811 38.0286C115.08 37.8717 115.371 37.9838 115.652 37.9502C115.977 37.9838 116.324 37.8717 116.638 38.0286C116.638 40.1704 116.638 42.3122 116.638 44.4539C116.638 44.7455 116.537 45.0706 116.784 45.3173C116.885 46.5284 117.098 47.7506 116.627 48.9393C116.033 48.9393 115.427 48.9393 114.811 48.9393Z" fill="#F37951"/>
<path d="M146.264 48.9392C145.714 48.9392 145.154 48.9392 144.604 48.9392C144.279 48.5692 144.346 48.1094 144.346 47.6833C144.335 44.9697 144.346 42.256 144.346 39.5424C144.346 38.3538 144.335 38.3538 143.18 38.2753C142.721 38.2865 142.261 38.2977 141.812 38.2753C141.308 38.2865 140.814 38.2977 140.31 38.2753C139.861 38.2865 139.413 38.2865 138.964 38.2753C138.459 38.1856 137.831 38.5444 137.473 37.894C140.074 37.894 142.687 37.894 145.3 37.894C145.647 38.0847 146.129 37.7483 146.432 38.1632C146.555 38.4435 146.555 38.7463 146.555 39.049C146.567 41.9869 146.567 44.9136 146.555 47.8515C146.522 48.2328 146.555 48.6252 146.264 48.9392Z" fill="#F59879"/>
<path d="M112.647 38.0286C112.647 41.6617 112.647 45.306 112.647 48.9392C112.097 48.9392 111.537 48.9392 110.987 48.9392C110.684 48.6252 110.718 48.2327 110.718 47.8515C110.729 44.936 110.707 42.0205 110.718 39.105C110.718 38.7462 110.696 38.3874 110.909 38.0734C111.492 37.8604 112.064 37.9276 112.647 38.0286Z" fill="#F2714E"/>
<path d="M130.117 45.3175C130.117 46.5285 130.117 47.7283 130.117 48.9394C129.175 48.9394 128.233 48.9394 127.291 48.9394C127.291 45.3063 127.291 41.6619 127.291 38.0288C127.852 37.883 128.412 37.9391 128.973 37.9951C129.377 38.9707 129.287 39.9463 129.007 40.933C128.513 41.3591 127.953 41.6843 127.773 42.402C127.448 43.6467 128.042 44.7232 129.298 45.0371C129.567 45.1156 129.893 45.0596 130.117 45.3175Z" fill="#F38159"/>
<path d="M140.277 38.0288C140.781 38.0288 141.275 38.0288 141.779 38.0288C142.059 38.3428 142.048 38.7352 142.048 39.1165C142.059 42.0208 142.059 44.9362 142.048 47.8405C142.048 48.2218 142.082 48.6142 141.779 48.9282C141.275 48.9282 140.781 48.9282 140.277 48.9282C140.086 48.7376 140.041 48.5021 140.03 48.2442C139.94 45.0596 139.749 41.8862 140.03 38.7016C140.052 38.4661 140.097 38.2194 140.277 38.0288Z" fill="#F5906E"/>
<path d="M95.0065 38.0288C95.0065 41.6619 95.0065 45.3063 95.0065 48.9394C94.5019 48.9394 94.0085 48.9394 93.5039 48.9394C93.5039 45.3063 93.5039 41.6619 93.5039 38.0288C94.0085 38.0288 94.5131 38.0288 95.0065 38.0288Z" fill="#EF513D"/>
<path d="M143.102 38.0288C144.604 38.0288 144.604 38.0288 144.604 39.509C144.604 42.6487 144.604 45.7997 144.604 48.9394C144.1 48.9394 143.606 48.9394 143.102 48.9394C142.799 48.6254 142.833 48.233 142.833 47.8517C142.821 44.9475 142.821 42.032 142.833 39.1277C142.833 38.7353 142.81 38.3428 143.102 38.0288Z" fill="#F59574"/>
<path d="M81.5301 48.9395C81.0815 48.9395 80.6442 48.9395 80.1957 48.9395C79.9041 48.6256 79.9602 48.2219 79.949 47.8406C79.9266 46.8538 79.9938 45.8559 79.8929 44.8691C79.9265 44.1514 80.0948 43.4001 79.4668 42.8058C79.4107 42.4806 79.4556 42.1779 79.5229 41.8639C79.5901 41.6172 79.6799 41.3817 79.7584 41.135C79.8256 40.3949 79.792 39.6549 79.792 38.926C79.7808 38.2868 79.949 37.8607 80.7003 37.9056C81.0927 37.9056 81.474 37.9056 81.8665 37.9056C81.7431 41.1911 81.844 44.4878 81.7992 47.7733C81.788 48.177 81.844 48.6031 81.5301 48.9395Z" fill="#C14E53"/>
<path d="M116.638 48.9393C116.716 47.7395 116.47 46.5172 116.795 45.3174L116.84 45.2725C117.591 45.1268 117.871 44.6558 117.748 43.9157C117.725 43.8036 117.737 43.6915 117.748 43.5905C117.781 43.2766 117.658 42.8168 118.017 42.7047C118.376 42.5926 118.533 43.0411 118.712 43.2878C119.183 43.9606 119.789 44.5325 120.136 45.295C120.136 46.506 120.136 47.7171 120.136 48.9281C118.97 48.9393 117.804 48.9393 116.638 48.9393Z" fill="#F37C54"/>
<path d="M85.8456 37.894C86.2381 37.894 86.6193 37.894 87.0118 37.894C86.9109 38.2753 86.4175 38.365 86.3951 38.8808C86.339 40.2264 86.3502 40.3161 87.5388 40.8207C87.5725 40.9104 87.5612 40.9889 87.494 41.0674C86.8997 41.2468 86.7427 41.6617 86.7427 42.256C86.7427 43.0746 86.866 43.8932 86.7651 44.7118C86.4511 45.6985 86.6754 46.6965 86.6081 47.6945C86.5745 48.1206 86.6754 48.5692 86.3502 48.9392C85.9017 48.9392 85.4643 48.9392 85.0158 48.9392C84.713 48.6252 84.7579 48.2328 84.7467 47.8515C84.7355 44.936 84.7355 42.0206 84.7467 39.1051C84.7691 38.0398 84.814 38.0062 85.8456 37.894Z" fill="#D64D48"/>
<path d="M76.2035 37.894C76.4839 37.894 76.7642 37.894 77.0445 37.894C77.4819 38.1071 77.4258 38.5108 77.437 38.892C77.4594 39.7106 77.4146 40.5292 77.5043 41.3366C77.5267 41.5832 77.4707 41.8299 77.437 42.0766C77.3697 42.6373 77.5379 43.0522 78.1322 43.2204C78.2892 43.2652 78.4462 43.3213 78.592 43.3998C78.8611 43.5456 79.1751 43.7026 79.0742 44.0726C78.9733 44.4651 78.6144 44.5099 78.2668 44.4987C77.4034 44.4875 77.4034 44.4763 77.6501 45.3285C77.594 46.2031 77.6164 47.0666 77.6052 47.9412C77.6052 48.2888 77.6276 48.6589 77.3585 48.9392C76.91 48.9392 76.4727 48.9392 76.0241 48.9392C75.7662 48.6813 75.7662 48.3337 75.7662 48.0085C75.755 44.9697 75.755 41.9421 75.7662 38.9032C75.7886 38.522 75.7774 38.1183 76.2035 37.894Z" fill="#AF4F5C"/>
<path d="M85.847 37.8941C85.163 37.9838 84.9948 38.3538 85.006 39.0491C85.0509 42.3458 85.0284 45.6425 85.0284 48.9393C84.5799 48.9393 84.1426 48.9393 83.694 48.9393C83.4137 48.6477 83.4361 48.2889 83.4361 47.93C83.4249 44.9585 83.4249 41.987 83.4361 39.0154C83.4361 38.3875 83.5259 37.838 84.3556 37.8941C84.849 37.8941 85.3536 37.8941 85.847 37.8941Z" fill="#D04E4B"/>
<path d="M56.9049 48.9394C56.4564 48.9394 56.019 48.9394 55.5705 48.9394C55.3126 48.6815 55.3126 48.3451 55.3014 48.0199C55.2902 44.9699 55.2902 41.9311 55.3014 38.8811C55.3014 38.5783 55.3126 38.2755 55.5256 38.0288C55.6041 38.0064 55.6714 37.9616 55.7611 37.9616C57.0731 37.8943 57.1516 37.9728 57.1628 39.2959C57.174 42.1217 57.174 44.9475 57.1628 47.7733C57.174 48.1769 57.2189 48.603 56.9049 48.9394Z" fill="#5C5488"/>
<path d="M50.5801 48.9396C50.5801 45.3065 50.5801 41.6622 50.5801 38.029C50.7259 37.9169 50.8941 37.9505 51.0623 37.9505C52.0602 37.9281 52.1612 38.0066 52.1724 39.0046C52.1948 42.0098 52.1836 45.015 52.1724 48.0089C52.1724 48.3341 52.1612 48.6705 51.9033 48.9396C51.4659 48.9396 51.0286 48.9396 50.5801 48.9396Z" fill="#485593"/>
<path d="M54.4049 48.9394C53.9564 48.9394 53.519 48.9394 53.0705 48.9394C52.8126 48.6815 52.8126 48.3451 52.8014 48.0199C52.7902 44.9699 52.7902 41.9311 52.8014 38.881C52.8014 38.5783 52.8126 38.2755 53.0256 38.0288C53.1041 38.0064 53.1714 37.9615 53.2611 37.9615C54.5731 37.8942 54.6516 37.9727 54.6628 39.3071C54.674 42.1329 54.674 44.9587 54.6628 47.7844C54.674 48.1769 54.7301 48.603 54.4049 48.9394Z" fill="#52548D"/>
<path d="M143.102 38.0288C143.102 41.6619 143.102 45.3063 143.102 48.9394C142.653 48.9394 142.216 48.9394 141.768 48.9394C141.768 45.3063 141.768 41.6619 141.768 38.0288C142.216 38.0288 142.653 38.0288 143.102 38.0288Z" fill="#F59371"/>
<path d="M152.913 48.9392C152.464 48.9392 152.027 48.9392 151.578 48.9392C151.287 48.6252 151.309 48.2215 151.309 47.8402C151.298 44.9248 151.298 41.9981 151.309 39.0826C151.309 38.7238 151.287 38.365 151.511 38.051C151.993 37.8604 152.475 37.9052 152.958 38.0286C153.215 38.365 153.171 38.7574 153.182 39.1387C153.193 42.0205 153.193 44.8911 153.182 47.773C153.182 48.1766 153.227 48.6028 152.913 48.9392Z" fill="#F7A98E"/>
<path d="M161.636 25.2681C161.311 24.1244 161.636 23.631 162.747 23.474C163.632 23.3506 164.518 23.4291 165.404 23.4852C165.886 23.5188 166.368 23.4852 166.929 23.4852C165.124 22.2854 163.352 22.106 161.513 23.0703C161.289 23.1824 161.053 23.2497 160.818 23.3282C160.403 23.4852 159.977 23.5637 159.685 23.16C159.427 22.8124 159.584 22.4311 159.753 22.0611C159.943 21.6686 160.044 21.5565 160.481 21.9265C161.311 22.633 162.376 22.5321 163.229 22.0611C165.023 21.0519 166.391 21.7247 167.748 22.8797C168.151 23.2161 168.073 23.4291 167.714 23.6983C166.682 24.4832 165.572 24.9542 164.238 24.6514C163.296 24.4496 162.388 24.3935 161.636 25.2681Z" fill="#ED332E"/>
<path d="M53.0799 38.0286C53.0799 41.6617 53.0799 45.3061 53.0799 48.9392C52.6874 48.9392 52.3062 48.9392 51.9137 48.9392C51.9137 45.7434 51.9249 42.5476 51.9137 39.3406C51.9137 37.8604 52.1155 38.0398 50.5905 38.0286C50.2093 37.9725 49.7944 38.152 49.4355 37.894C50.4335 37.894 51.4315 37.894 52.4295 37.894C52.6201 38.0174 52.8781 37.8604 53.0799 38.0286Z" fill="#4D5590"/>
<path d="M53.0815 38.0286C52.8572 38.0062 52.6105 38.0959 52.4199 37.894C53.2497 37.894 54.0795 37.894 54.9205 37.894C55.1223 38.0174 55.3803 37.8604 55.5821 38.0286C55.5821 41.6617 55.5821 45.3061 55.5821 48.9392C55.1896 48.9392 54.8084 48.9392 54.4159 48.9392C54.4159 45.7434 54.4271 42.5476 54.4159 39.3406C54.4047 37.8604 54.6065 38.0398 53.0815 38.0286Z" fill="#57548B"/>
<path d="M81.5283 48.9392C81.5283 45.5752 81.5283 42.2112 81.5283 38.8472C81.5283 38.4884 81.4722 38.1183 81.8535 37.894C82.302 37.894 82.7393 37.894 83.1879 37.894C82.9748 38.5781 82.9524 39.2957 82.9524 40.0022C82.9636 42.5588 82.9636 45.1155 82.9524 47.6721C82.9524 48.1094 83.0309 48.558 82.6945 48.928C82.302 48.9392 81.9208 48.9392 81.5283 48.9392Z" fill="#C74E50"/>
<path d="M76.2028 37.894C76.0009 38.1856 76.0458 38.522 76.0458 38.8584C76.0458 42.2224 76.0458 45.5752 76.0458 48.9392C75.6533 48.9392 75.2721 48.9392 74.8796 48.9392C74.6217 48.6813 74.6217 48.3337 74.6217 48.0085C74.6105 44.9697 74.6105 41.9421 74.6217 38.9032C74.6217 38.522 74.6105 38.1071 75.0366 37.894C75.429 37.894 75.8103 37.894 76.2028 37.894Z" fill="#AA4F5F"/>
<path d="M63.7221 48.9392C63.3296 48.9392 62.9484 48.9392 62.5559 48.9392C62.2195 48.5692 62.298 48.1094 62.298 47.6833C62.2868 45.1267 62.2868 42.57 62.298 40.0134C62.298 39.2957 62.2868 38.5893 62.0625 37.9053C62.2868 37.9053 62.511 37.9053 62.7241 37.9053C63.9688 38.0286 63.98 38.0286 63.98 39.3518C63.98 42.1327 63.98 44.9024 63.98 47.6833C63.9912 48.1094 64.0585 48.5692 63.7221 48.9392Z" fill="#76527A"/>
<path d="M72.2097 48.9392C71.8173 48.9392 71.436 48.9392 71.0436 48.9392C70.7632 48.6477 70.7744 48.2888 70.7856 47.93C70.7969 44.9585 70.8305 41.9869 70.7856 39.0154C70.7744 38.4884 70.7744 37.9277 71.5369 37.894C71.6491 37.894 71.7724 37.894 71.8846 37.894C72.3779 37.9837 72.4564 38.365 72.4564 38.7687C72.4789 41.9084 72.4789 45.037 72.4564 48.1767C72.4677 48.457 72.4228 48.7262 72.2097 48.9392Z" fill="#9B5067"/>
<path d="M47.9238 38.0288C49.09 38.0288 49.09 38.0288 49.09 39.1726C49.09 42.4244 49.09 45.6763 49.09 48.9394C48.6976 48.9394 48.3163 48.9394 47.9238 48.9394C47.9238 45.3063 47.9238 41.6619 47.9238 38.0288Z" fill="#3D5698"/>
<path d="M146.264 48.9395C146.264 45.3064 146.264 41.662 146.264 38.0289C146.679 37.9168 147.093 37.8719 147.508 38.0625C147.71 38.3541 147.699 38.6905 147.699 39.0157C147.71 41.9872 147.71 44.9587 147.699 47.9191C147.699 48.2779 147.71 48.6367 147.43 48.9283C147.037 48.9395 146.645 48.9395 146.264 48.9395Z" fill="#F69C7D"/>
<path d="M150.424 48.9396C150.032 48.9396 149.65 48.9396 149.258 48.9396C148.955 48.6257 148.989 48.2332 148.989 47.8519C148.978 44.9365 148.978 42.021 148.989 39.1055C148.989 38.7467 148.966 38.3879 149.191 38.0739C149.617 37.8945 150.043 37.9169 150.469 38.0627C150.693 38.343 150.693 38.6794 150.693 39.0046C150.705 41.9873 150.705 44.9589 150.693 47.9416C150.682 48.2893 150.705 48.6481 150.424 48.9396Z" fill="#F6A386"/>
<path d="M150.424 48.9393C150.424 45.3062 150.424 41.6618 150.424 38.0287C150.457 38.0063 150.502 37.9838 150.536 37.9614C150.884 37.9838 151.242 37.8717 151.59 38.0287C151.59 41.6618 151.59 45.3062 151.59 48.9393C151.198 48.9393 150.805 48.9393 150.424 48.9393Z" fill="#F7A689"/>
<path d="M156.075 48.9392C155.683 48.9392 155.301 48.9392 154.909 48.9392C154.64 48.6477 154.651 48.2889 154.651 47.93C154.64 44.9473 154.64 41.9533 154.651 38.9706C154.651 38.6678 154.651 38.365 154.819 38.0959C155.156 37.8044 155.548 38.0062 155.918 37.9501C156.03 37.9614 156.12 38.0062 156.187 38.1071C156.367 38.4435 156.344 38.8024 156.344 39.1612C156.344 42.0318 156.355 44.9024 156.344 47.7618C156.344 48.1767 156.389 48.6028 156.075 48.9392Z" fill="#F8B39B"/>
<path d="M9.01195 29.731C12.6563 28.1611 15.2017 25.4811 16.895 21.9377C16.9734 21.7695 17.0744 21.6013 17.1641 21.4331C16.794 23.6421 15.6503 25.4811 14.3271 27.2304C13.3179 28.5536 12.1405 29.7086 10.7837 30.6953C10.3576 31.0093 9.92023 31.5588 9.32593 31.1775C8.81011 30.8635 8.97831 30.2468 9.01195 29.731Z" fill="#F89C28"/>
<path d="M140.277 38.0288C139.974 41.6619 140.254 45.3063 140.277 48.9394C139.884 48.9394 139.503 48.9394 139.111 48.9394C138.696 48.3787 138.886 47.7284 138.864 47.1229C138.83 45.8221 138.853 45.8221 137.642 45.4633C137.563 45.4408 137.496 45.3848 137.429 45.3399C137.204 45.2951 137.104 45.1605 137.104 44.9362C137.115 43.6467 137.115 42.346 137.137 41.0564C137.137 40.9891 137.227 40.9219 137.272 40.8546C137.373 40.7537 137.496 40.6976 137.631 40.6639C138.685 40.4285 138.685 40.4285 138.696 39.2959C138.707 38.8698 138.617 38.4101 138.943 38.04C139.38 38.0288 139.828 38.0288 140.277 38.0288Z" fill="#F48E6A"/>
<path d="M60.7282 48.9392C60.3918 48.9392 60.0666 48.9392 59.7302 48.9392C59.2704 48.1655 59.562 47.3245 59.4947 46.5171C59.461 46.0686 59.4947 45.6089 58.878 45.5192C58.7097 45.4519 58.5191 45.3958 58.5528 45.1379C58.6985 44.9921 58.8892 44.9473 59.0798 44.9248C59.5395 44.88 59.6629 44.5884 59.6629 44.1848C59.6629 43.6689 59.6629 43.1419 59.6629 42.6261C59.6629 41.4487 59.6629 41.4487 58.6088 41.0787C58.5528 41.0114 58.5079 40.8992 58.5864 40.8656C59.4835 40.3274 59.1134 39.4639 59.1471 38.7126C59.1583 38.4547 58.9677 38.3314 58.7322 38.2641C58.5415 38.208 58.2724 38.208 58.25 37.9053C58.7546 37.9053 59.248 37.9053 59.7526 37.9053C60.9973 38.0286 61.0085 38.0286 61.0085 39.3518C61.0085 42.1327 61.0085 44.9024 61.0085 47.6833C60.9973 48.1094 61.0646 48.5692 60.7282 48.9392Z" fill="#6C5380"/>
<path d="M91.3518 38.0288C91.3518 41.6619 91.3518 45.3063 91.3518 48.9394C90.9593 48.9394 90.578 48.9394 90.1856 48.9394C89.894 48.6254 89.9389 48.2218 89.9389 47.8405C89.9277 46.8537 89.9613 45.8557 89.8828 44.869C90.2529 43.6131 90.0622 42.3235 90.1183 41.0564C90.1183 40.9555 90.1183 40.8546 90.1183 40.7537C90.1856 39.8454 89.8716 38.9035 90.3538 38.0288C90.679 38.0288 91.0154 38.0288 91.3518 38.0288Z" fill="#EC4C3D"/>
<path d="M167.905 20.7378C168.578 21.8591 169.531 21.9376 170.619 21.7021C172.133 21.377 173.624 20.9284 175.194 20.9508C176.293 20.9621 177.324 21.22 178.311 21.7021C178.692 21.8816 178.827 22.117 178.513 22.4534C178.322 22.6665 178.379 23.2047 177.751 22.8235C176.685 22.1731 175.407 22.2628 174.196 22.1843C172.559 22.0834 170.933 22.2516 169.329 22.5656C168.814 22.6665 168.32 22.6665 167.95 22.2292C167.558 21.7694 167.715 21.2648 167.905 20.7378Z" fill="#EC1E25"/>
<path d="M110.987 38.0286C110.987 41.6618 110.987 45.3061 110.987 48.9392C110.482 48.9392 109.989 48.9392 109.484 48.9392C109.025 47.717 109.227 46.4835 109.383 45.25C110.269 44.6333 110.269 44.6333 109.877 43.4447C109.787 43.1868 109.675 42.9289 109.742 42.6373C110.034 41.5272 109.843 40.4059 109.899 39.2845C109.922 38.8584 109.821 38.3987 110.101 38.0062C110.404 37.9053 110.695 37.9053 110.987 38.0286Z" fill="#F26F4D"/>
<path d="M55.5698 38.0289C55.3455 38.0065 55.0988 38.0962 54.9082 37.8943C55.6819 37.8943 56.4669 37.8943 57.2406 37.8943C57.9134 37.8607 58.1601 38.2083 58.1601 38.8475C58.1601 41.9311 58.1713 45.0036 58.1601 48.0873C58.1601 48.39 58.1377 48.6928 57.9022 48.9283C57.5658 48.9283 57.2406 48.9283 56.9042 48.9283C56.9042 45.7325 56.9154 42.5367 56.9042 39.3296C56.893 37.8607 57.0948 38.0401 55.5698 38.0289Z" fill="#615485"/>
<path d="M160.235 48.9504C159.899 48.9504 159.574 48.9504 159.237 48.9504C158.912 48.5804 158.979 48.1206 158.979 47.6833C158.968 44.9248 158.979 42.1663 158.968 39.4078C158.968 38.9929 159.091 38.4883 158.52 38.2865C158.284 38.2529 158.026 38.2529 157.813 38.1295C157.723 38.0734 157.69 37.9837 157.735 37.8828C158.351 37.8828 158.957 37.8828 159.574 37.8828C159.82 38.051 160.224 37.8043 160.381 38.1856C160.516 38.5332 160.493 38.892 160.493 39.2508C160.493 42.0654 160.493 44.8687 160.493 47.6833C160.504 48.1206 160.572 48.5804 160.235 48.9504Z" fill="#F9C0AD"/>
<path d="M63.7231 48.9392C63.7231 45.7322 63.7007 42.514 63.7455 39.3069C63.7567 38.522 63.7231 37.9165 62.7363 37.9053C63.2858 37.9053 63.8465 37.9053 64.3959 37.9053C64.5977 37.9613 64.822 37.995 64.8893 38.2417C64.9902 38.5332 64.9902 38.836 64.9902 39.1387C64.9902 42.043 65.0014 44.9473 64.9902 47.8627C64.9902 48.244 65.0239 48.6365 64.7323 48.9504C64.3959 48.9392 64.0595 48.9392 63.7231 48.9392Z" fill="#7B5277"/>
<path d="M165.069 48.9504C164.733 48.9504 164.408 48.9504 164.071 48.9504C163.746 48.5803 163.814 48.1206 163.814 47.6833C163.802 44.9024 163.814 42.1214 163.802 39.3517C163.802 38.9369 163.903 38.4322 163.298 38.2753C163.017 38.208 162.647 38.2977 162.58 37.8716C163.13 37.8716 163.69 37.8716 164.24 37.8716C165.283 38.0286 165.327 38.0734 165.327 39.1723C165.339 42.0654 165.339 44.9584 165.327 47.8515C165.327 48.2327 165.361 48.6364 165.069 48.9504Z" fill="#FAD0C2"/>
<path d="M60.729 48.9395C60.729 45.7325 60.7065 42.5142 60.7514 39.3072C60.7626 38.5223 60.7178 37.9168 59.7422 37.9056C60.1907 37.9056 60.628 37.9056 61.0766 37.9056C61.7494 37.8719 61.9961 38.2195 61.9961 38.8587C61.9961 41.9424 62.0073 45.0148 61.9961 48.0985C61.9961 48.4013 61.9736 48.704 61.7382 48.9395C61.4018 48.9395 61.0654 48.9395 60.729 48.9395Z" fill="#6F537E"/>
<path d="M162.567 37.8716C162.747 38.0958 163.005 38.0061 163.229 38.0286C163.509 38.3425 163.498 38.735 163.498 39.1162C163.509 42.0317 163.509 44.936 163.498 47.8515C163.498 48.2327 163.52 48.6252 163.229 48.9392C162.892 48.9392 162.567 48.9392 162.231 48.9392C161.906 48.5691 161.984 48.1094 161.984 47.672C161.973 44.9136 161.984 42.1663 161.973 39.4078C161.973 38.9929 162.096 38.4995 161.547 38.264C161.457 38.2304 161.367 38.1743 161.289 38.1183C161.199 38.051 161.177 37.9613 161.222 37.8604C161.681 37.8828 162.13 37.8828 162.567 37.8716Z" fill="#FACABA"/>
<path d="M82.6948 48.9392C82.6948 45.5528 82.706 42.1776 82.6836 38.7911C82.6836 38.365 82.7509 38.051 83.1882 37.894C83.5807 37.894 83.9619 37.894 84.3544 37.894C83.8162 38.0174 83.6704 38.3314 83.6816 38.8808C83.7152 42.2336 83.6928 45.5864 83.6928 48.9392C83.3564 48.9392 83.0312 48.9392 82.6948 48.9392Z" fill="#CB4E4D"/>
<path d="M72.2119 48.9392C72.2119 45.5752 72.2119 42.2112 72.2119 38.8472C72.2119 38.4884 72.268 38.1183 71.8867 37.894C72.2231 37.894 72.5483 37.894 72.8847 37.894C73.3781 37.9837 73.4566 38.365 73.4566 38.7687C73.479 41.9084 73.479 45.037 73.4566 48.1767C73.4566 48.457 73.4117 48.7262 73.1987 48.9392C72.8847 48.9392 72.5483 48.9392 72.2119 48.9392Z" fill="#9E5065"/>
<path d="M57.9018 48.9392C57.9018 45.5864 57.8906 42.2336 57.913 38.8921C57.913 38.3426 57.7785 38.0286 57.2402 37.9053C57.5766 37.9053 57.9018 37.9053 58.2382 37.9053C59.3932 38.2305 59.3596 38.2305 59.4044 39.5424C59.4268 40.2489 59.382 40.832 58.5858 41.0674C58.9447 42.413 58.9559 43.7474 58.5858 45.093C58.6083 45.2612 58.7428 45.3061 58.8886 45.3397C59.3035 46.5396 59.3035 47.7394 58.8886 48.9392C58.5634 48.9392 58.2382 48.9392 57.9018 48.9392Z" fill="#645384"/>
<path d="M147.43 48.9394C147.43 45.3062 147.43 41.6619 147.43 38.0288C147.8 37.9166 148.159 37.8606 148.506 38.0736C148.686 38.3427 148.686 38.6455 148.686 38.9482C148.697 41.9759 148.697 44.9923 148.686 48.0199C148.686 48.3451 148.674 48.6815 148.416 48.9506C148.091 48.9394 147.755 48.9394 147.43 48.9394Z" fill="#F69F80"/>
<path d="M152.914 48.9395C152.914 45.3064 152.914 41.662 152.914 38.0289C153.206 37.8719 153.52 37.9728 153.822 37.9616C153.923 37.9953 154.002 38.0626 154.058 38.1635C154.181 38.4438 154.181 38.7466 154.181 39.0493C154.192 41.9872 154.192 44.9139 154.181 47.8518C154.181 48.2331 154.215 48.6255 153.912 48.9395C153.587 48.9395 153.25 48.9395 152.914 48.9395Z" fill="#F7AC92"/>
<path d="M153.912 48.9396C153.912 45.3065 153.912 41.6622 153.912 38.029C154.249 37.9057 154.574 37.9057 154.91 38.029C154.91 41.6622 154.91 45.3065 154.91 48.9396C154.585 48.9396 154.249 48.9396 153.912 48.9396Z" fill="#F7AF96"/>
<path d="M160.236 48.9509C160.236 45.3065 160.236 41.6734 160.236 38.029C160.573 37.9057 160.898 37.9057 161.234 38.029C161.515 38.343 161.503 38.7355 161.503 39.1167C161.515 42.0322 161.515 44.9365 161.503 47.8519C161.503 48.2332 161.526 48.6257 161.234 48.9396C160.909 48.9509 160.573 48.9509 160.236 48.9509Z" fill="#F9C2B0"/>
<path d="M161.234 48.9505C161.234 45.3061 161.234 41.673 161.234 38.0287C162.031 37.8941 162.266 38.2081 162.255 39.0154C162.21 42.3234 162.232 45.6425 162.232 48.9505C161.907 48.9505 161.571 48.9505 161.234 48.9505Z" fill="#F9C6B4"/>
<path d="M64.7197 38.0286C64.6076 37.9838 64.5067 37.9389 64.3945 37.894C64.9552 37.894 65.5047 37.894 66.0653 37.894C66.5699 37.9165 66.7942 38.1744 66.7942 38.6678C66.7942 39.4863 66.8727 40.2937 66.6596 41.1011C66.6709 42.514 66.5475 43.9381 66.7493 45.3509C66.8727 46.2929 66.8054 47.246 66.8054 48.1879C66.8054 48.457 66.7606 48.7262 66.5587 48.9392C66.2223 48.9392 65.8971 48.9392 65.5607 48.9392C65.2243 48.5692 65.3028 48.1094 65.3028 47.6721C65.2916 44.9136 65.2916 42.1551 65.3028 39.3966C65.3028 38.8584 65.2355 38.3538 64.7197 38.0286Z" fill="#825274"/>
<path d="M97.3405 48.9396C97.3405 47.9753 97.3069 47.0109 97.3518 46.0466C97.3742 45.5868 97.1836 45.3401 96.8359 45.1383C97.4078 44.9477 97.8676 44.6898 97.8564 43.9609C97.8564 43.6357 98.1367 43.546 98.361 43.8375C98.6301 44.2076 99.0113 44.544 98.8656 45.0822C100.121 45.2841 99.8187 46.2372 99.8299 47.0446C99.8411 47.6725 99.8299 48.3117 99.8299 48.9396C99.0001 48.9396 98.1703 48.9396 97.3405 48.9396Z" fill="#F05942"/>
<path d="M90.3546 40.8432C90.3546 40.8992 90.3546 40.9553 90.3546 41.0114C89.536 41.2468 89.3566 41.8299 89.4351 42.5924C89.4799 42.9737 89.4687 43.3662 89.3678 43.7362C89.2108 44.2969 88.8184 44.5436 88.2465 44.4987C87.7082 44.4539 87.4727 44.095 87.4615 43.6016C87.4391 42.727 87.3494 41.8524 87.5176 40.9777C87.5176 40.9329 87.5176 40.888 87.5176 40.8432C87.0691 40.047 87.2709 39.1948 87.3382 38.3538C87.383 37.838 87.8652 37.995 88.1792 37.894C88.2913 37.894 88.4147 37.894 88.5268 37.894C88.6614 38.0622 88.8408 38.0174 89.0202 38.0286C89.2893 38.3202 89.2893 38.6902 89.2557 39.0378C89.1548 39.9349 89.3005 40.6525 90.3546 40.8432Z" fill="#E14D43"/>
<path d="M75.0371 37.894C74.8353 38.1856 74.8802 38.522 74.8802 38.8584C74.8802 42.2224 74.8802 45.5752 74.8802 48.9392C74.5998 48.9392 74.3307 48.9392 74.0504 48.9392C73.7925 48.6813 73.7925 48.3449 73.7925 48.0085C73.7813 44.8239 73.7925 41.6393 73.7812 38.4547C73.7812 38.2641 73.7925 38.0735 73.8934 37.894C74.2634 37.894 74.6559 37.894 75.0371 37.894Z" fill="#A65061"/>
<path d="M73.8808 37.894C74.0826 38.1856 74.0378 38.522 74.0378 38.8584C74.0378 42.2224 74.0378 45.5752 74.0378 48.9392C73.7575 48.9392 73.4883 48.9392 73.208 48.9392C73.208 45.5752 73.208 42.2112 73.208 38.8472C73.208 38.4884 73.2641 38.1183 72.8828 37.894C73.2192 37.894 73.5556 37.894 73.8808 37.894Z" fill="#A35062"/>
<path d="M61.726 48.9392C61.726 45.5864 61.7148 42.2336 61.7373 38.8921C61.7373 38.3426 61.6027 38.0286 61.0645 37.9053C61.4009 37.9053 61.726 37.9053 62.0624 37.9053C62.4998 38.0623 62.567 38.3762 62.567 38.8023C62.5446 42.1888 62.5558 45.564 62.5558 48.9504C62.2867 48.9392 62.0064 48.9392 61.726 48.9392Z" fill="#72527C"/>
<path d="M165.069 48.9507C165.069 45.6764 165.046 42.4021 165.091 39.1278C165.102 38.4438 165.001 37.9728 164.25 37.8719C164.766 37.7598 165.237 37.9953 165.741 38.0177C165.865 37.9728 165.954 37.9953 166.022 38.1074C166.201 38.4326 166.179 38.8026 166.179 39.1614C166.179 42.0321 166.179 44.9027 166.179 47.7733C166.179 48.1882 166.224 48.6143 165.91 48.9507C165.618 48.9507 165.338 48.9507 165.069 48.9507Z" fill="#FBD5C7"/>
<path d="M168.231 48.9504C167.951 48.9504 167.682 48.9504 167.402 48.9504C167.076 48.5803 167.144 48.1318 167.144 47.6945C167.132 45.1154 167.144 42.5476 167.144 39.9685C167.144 39.262 167.166 38.5444 166.908 37.8716C167.189 37.8716 167.458 37.8716 167.738 37.8716C168.287 37.9949 168.489 38.3762 168.489 38.892C168.512 41.9869 168.512 45.093 168.489 48.1879C168.478 48.4682 168.433 48.7373 168.231 48.9504Z" fill="#FBDDD2"/>
<path d="M172.885 37.8604C173.165 37.8604 173.434 37.8604 173.715 37.8604C174.051 38.1295 174.13 38.4883 174.141 38.892C174.163 41.9644 174.152 45.0369 174.141 48.1094C174.141 48.4121 174.107 48.7149 173.883 48.9504C173.602 48.9504 173.333 48.9504 173.053 48.9504C172.806 48.6813 172.795 48.3449 172.795 48.0197C172.773 44.8239 172.806 41.6168 172.784 38.421C172.773 38.2304 172.795 38.0398 172.885 37.8604Z" fill="#FDF5F2"/>
<path d="M171.058 48.9504C170.778 48.9504 170.508 48.9504 170.228 48.9504C169.981 48.6813 169.97 48.3449 169.97 48.0197C169.959 44.8239 169.981 41.628 169.959 38.421C169.959 38.2304 169.97 38.0398 170.071 37.8604C170.295 37.8604 170.52 37.8604 170.733 37.8604C171.215 38.0734 171.316 38.4883 171.327 38.948C171.349 41.9981 171.338 45.0481 171.327 48.0982C171.316 48.4121 171.282 48.7149 171.058 48.9504Z" fill="#FCE8E1"/>
<path d="M148.428 48.9396C148.428 45.3065 148.428 41.6622 148.428 38.029C148.708 37.9057 148.977 37.9057 149.258 38.029C149.258 41.6622 149.258 45.3065 149.258 48.9396C148.977 48.9396 148.697 48.9396 148.428 48.9396Z" fill="#F6A183"/>
<path d="M165.898 48.9505C165.898 45.3062 165.898 41.673 165.898 38.0287C166.796 37.8941 166.975 37.9951 166.986 38.8473C167.02 41.9309 167.009 45.0258 166.997 48.1095C166.997 48.4123 166.964 48.715 166.739 48.9617C166.448 48.9505 166.179 48.9505 165.898 48.9505Z" fill="#FBD8CB"/>
<path d="M64.7207 38.0286C65.3599 37.9277 65.5729 38.1743 65.5729 38.8472C65.5393 42.2112 65.5617 45.5752 65.5617 48.9392C65.2814 48.9392 65.0123 48.9392 64.7319 48.9392C64.7207 45.3061 64.7207 41.6617 64.7207 38.0286Z" fill="#7F5275"/>
<path d="M163.23 48.9504C163.23 45.3061 163.23 41.673 163.23 38.0286C163.858 37.9389 164.083 38.1632 164.083 38.836C164.049 42.2112 164.071 45.5752 164.071 48.9504C163.791 48.9504 163.511 48.9504 163.23 48.9504Z" fill="#FACDBD"/>
<path d="M158.407 38.0286C159.046 37.9277 159.259 38.1743 159.259 38.8472C159.226 42.2112 159.248 45.5752 159.248 48.9504C158.968 48.9504 158.698 48.9504 158.418 48.9504C158.127 48.6364 158.149 48.244 158.149 47.8627C158.138 44.9472 158.138 42.043 158.149 39.1275C158.138 38.735 158.127 38.3426 158.407 38.0286Z" fill="#F8BCA8"/>
<path d="M158.409 38.029C158.409 41.6621 158.409 45.3064 158.409 48.9396C158.128 48.9396 157.859 48.9396 157.579 48.9396C157.321 48.6817 157.321 48.3453 157.321 48.0089C157.31 44.9813 157.31 41.9536 157.321 38.9148C157.321 38.6345 157.332 38.3654 157.478 38.1075C157.545 37.9953 157.635 37.9729 157.758 38.0178C157.971 38.029 158.184 38.029 158.409 38.029Z" fill="#F8BAA5"/>
<path d="M156.076 48.9396C156.076 45.3065 156.076 41.6621 156.076 38.029C156.39 37.9281 156.693 37.8608 156.996 38.0851C157.175 38.3542 157.175 38.657 157.175 38.9597C157.186 41.9537 157.186 44.9477 157.175 47.9416C157.175 48.3005 157.186 48.6593 156.906 48.9508C156.637 48.9396 156.357 48.9396 156.076 48.9396Z" fill="#F8B69F"/>
<path d="M71.5393 37.894C71.1019 38.051 71.0346 38.365 71.0346 38.7911C71.0571 42.1776 71.0459 45.5528 71.0459 48.9392C70.7095 48.9392 70.3843 48.9392 70.0479 48.9392C69.5769 47.773 69.7675 46.5844 69.9245 45.3958C70.3955 45.0145 70.5188 44.5211 70.4852 43.9381C70.4516 43.3886 70.4516 42.8391 70.4852 42.3009C70.53 41.7178 70.3506 41.2805 69.8124 41.0226C69.5096 39.9909 69.5881 38.9481 69.7227 37.9053C70.3282 37.894 70.9337 37.894 71.5393 37.894Z" fill="#965169"/>
<path d="M166.728 48.9506C166.728 45.5754 166.706 42.2002 166.739 38.8361C166.75 38.1633 166.526 37.9391 165.887 38.0288C165.831 38.0288 165.775 38.0288 165.719 38.0288C166.078 37.7148 166.504 37.9279 166.896 37.8718C167.367 38.0512 167.401 38.4213 167.401 38.8586C167.39 42.2226 167.39 45.5866 167.39 48.9506C167.176 48.9506 166.952 48.9506 166.728 48.9506Z" fill="#FBDACF"/>
<path d="M169.553 48.9504C169.329 48.9504 169.105 48.9504 168.892 48.9504C168.567 48.5803 168.634 48.1318 168.634 47.6945C168.623 45.1154 168.634 42.5363 168.634 39.9685C168.634 39.262 168.656 38.5444 168.398 37.8716C168.735 37.8716 169.06 37.8716 169.396 37.8716C169.766 38.0734 169.811 38.4323 169.823 38.7911C169.845 41.8972 169.845 45.0033 169.823 48.1094C169.811 48.4121 169.778 48.7149 169.553 48.9504Z" fill="#FCE3D9"/>
<path d="M173.883 48.9616C173.883 45.7209 173.883 42.4803 173.883 39.2396C173.883 38.7686 173.849 38.3089 173.715 37.8604C173.995 37.8604 174.264 37.8604 174.545 37.8604C174.825 38.1743 174.814 38.5668 174.814 38.9593C174.825 41.9308 174.825 44.9023 174.814 47.8627C174.814 48.2439 174.836 48.6364 174.545 48.9616C174.332 48.9616 174.107 48.9616 173.883 48.9616Z" fill="#FEF8F6"/>
<path d="M168.4 37.8716C168.871 38.051 168.904 38.421 168.904 38.8584C168.893 42.2224 168.893 45.5864 168.893 48.9504C168.669 48.9504 168.445 48.9504 168.232 48.9504C168.232 45.6312 168.22 42.3009 168.243 38.9817C168.243 38.4995 168.176 38.1183 167.738 37.8716C167.951 37.8716 168.176 37.8716 168.4 37.8716Z" fill="#FCE0D6"/>
<path d="M171.056 48.9504C171.056 45.6312 171.056 42.3233 171.067 39.0041C171.067 38.578 171.022 38.1855 170.73 37.8604C171.011 37.8604 171.28 37.8604 171.56 37.8604C171.897 38.1295 171.986 38.4883 171.986 38.892C172.009 41.9644 171.998 45.0369 171.986 48.1094C171.986 48.4121 171.953 48.7149 171.728 48.9504C171.493 48.9616 171.28 48.9504 171.056 48.9504Z" fill="#FDECE5"/>
<path d="M171.718 48.9616C171.718 45.6985 171.718 42.4242 171.729 39.1611C171.729 38.7126 171.684 38.2865 171.561 37.8716C171.785 37.8716 172.009 37.8716 172.222 37.8716C172.559 38.051 172.637 38.3762 172.637 38.7126C172.671 41.8748 172.659 45.0369 172.637 48.1991C172.637 48.4794 172.581 48.7485 172.379 48.9616C172.166 48.9616 171.942 48.9616 171.718 48.9616Z" fill="#FDEFEA"/>
<path d="M169.555 48.9504C169.555 45.5976 169.555 42.256 169.555 38.9032C169.555 38.5444 169.6 38.1855 169.387 37.8604C169.611 37.8604 169.835 37.8604 170.048 37.8604C170.25 38.1855 170.216 38.5444 170.216 38.9032C170.216 42.256 170.216 45.5976 170.216 48.9504C170.003 48.9504 169.779 48.9504 169.555 48.9504Z" fill="#FCE5DD"/>
<path d="M172.391 48.9616C172.391 45.6088 172.391 42.256 172.391 38.9144C172.391 38.5556 172.424 38.1968 172.223 37.8716C172.447 37.8716 172.671 37.8716 172.884 37.8716C173.086 38.1968 173.052 38.5556 173.052 38.9144C173.052 42.2672 173.052 45.62 173.052 48.9728C172.828 48.9616 172.604 48.9616 172.391 48.9616Z" fill="#FDF2EE"/>
<path d="M174.555 48.9618C174.555 45.2614 174.555 41.561 174.555 37.8718C175.048 37.8157 175.227 38.0063 175.227 38.5109C175.205 41.774 175.205 45.0483 175.227 48.3114C175.227 48.8272 175.048 49.0179 174.555 48.9618Z" fill="#FEFBFA"/>
<path d="M156.918 48.9396C156.918 45.3065 156.918 41.6622 156.918 38.029C157.142 37.9057 157.367 37.9057 157.58 38.029C157.58 41.6622 157.58 45.3065 157.58 48.9396C157.355 48.9396 157.131 48.9396 156.918 48.9396Z" fill="#F8B8A2"/>
<path d="M106.154 48.9392C106.244 47.7394 105.952 46.5171 106.322 45.3285C106.547 45.0033 107.04 45.2388 107.253 44.88C107.444 44.6557 107.578 44.2745 107.993 44.566C108.453 45.407 108.195 46.3265 108.229 47.2124C108.251 47.7955 108.397 48.4122 107.982 48.9504C107.376 48.9392 106.771 48.9392 106.154 48.9392Z" fill="#F1694A"/>
<path d="M107.992 48.9395C107.992 47.7509 107.992 46.5734 107.992 45.3848C107.992 45.0821 108.004 44.7793 107.824 44.5102C108.284 44.1289 108.789 44.185 109.26 44.4205C109.551 44.5663 109.674 44.8354 109.484 45.1718C109.484 46.4277 109.484 47.6948 109.484 48.9507C108.99 48.9395 108.486 48.9395 107.992 48.9395Z" fill="#F26C4B"/>
<path d="M138.942 38.0286C138.942 38.679 138.897 39.3293 138.953 39.9797C139.009 40.6525 138.785 40.9441 138.09 40.8431C137.821 40.8095 137.54 40.8319 137.271 40.8319C136.957 40.1816 137.114 39.4863 137.126 38.8135C137.137 38.2304 136.991 37.9389 136.352 38.0062C136.004 38.051 135.634 38.0174 135.287 38.0174C134.569 38.0174 133.84 38.0174 133.122 38.0174C132.293 38.0174 131.463 38.0174 130.622 38.0174C130.386 38.2192 130.128 38.2416 129.859 38.1071C129.77 38.051 129.747 37.9725 129.792 37.8828C132.349 37.8828 134.894 37.8828 137.451 37.8828C137.922 38.1744 138.449 37.9613 138.942 38.0286Z" fill="#F48C68"/>
<path d="M68.8811 48.9392C68.4887 48.9392 68.1074 48.9392 67.7149 48.9392C67.3673 48.5467 67.4682 48.0534 67.457 47.6048C67.4458 46.8647 67.4234 46.1247 67.4682 45.3846C67.5804 44.5996 67.2664 43.7699 67.6925 43.0186C68.6456 43.1643 68.8587 43.9156 69.0942 44.6669C69.1615 45.7883 69.1278 46.9096 69.1278 48.0309C69.139 48.3449 69.139 48.6813 68.8811 48.9392Z" fill="#8C526F"/>
<path d="M86.3623 48.9393C86.3623 47.7507 86.3511 46.5732 86.3735 45.3846C86.3735 45.1155 86.2277 44.7455 86.6875 44.6558C87.3603 44.9249 88.1228 44.9697 88.7283 45.4071C88.134 45.8107 88.1004 46.405 88.0892 47.0442C88.0892 47.6834 88.2798 48.3562 87.8649 48.9393C87.3603 48.9393 86.8557 48.9393 86.3623 48.9393Z" fill="#DC4D45"/>
<path d="M77.3681 48.9396C77.4578 47.6837 77.1775 46.4054 77.5363 45.1495C78.097 45.0037 78.6464 44.97 79.1398 45.3625C79.3417 46.5623 79.5099 47.751 79.0389 48.9284C78.4782 48.9396 77.9288 48.9396 77.3681 48.9396Z" fill="#B74F58"/>
<path d="M137.439 45.3285C139.11 45.2724 139.11 45.2724 139.11 46.9544C139.11 47.616 139.11 48.2776 139.11 48.9392C138.561 48.9392 138 48.9392 137.451 48.9392C137.439 47.7394 137.439 46.5395 137.439 45.3285Z" fill="#F48D69"/>
<path d="M180.991 31.0432C180.8 30.6058 180.71 30.2358 180.722 29.8433C180.8 27.8137 181.518 25.9971 182.583 24.2927C182.774 24.0012 183.043 23.676 183.458 23.7993C183.917 23.9339 183.873 24.3936 183.974 24.7525C183.996 24.8534 184.063 25.0664 183.817 24.9991C183.189 24.8309 182.976 25.3355 182.751 25.7168C181.989 27.0288 181.305 28.3744 181.181 29.9218C181.148 30.2694 181.058 30.617 180.991 31.0432Z" fill="#77786A"/>
<path d="M69.7213 37.894C70.0577 38.9032 69.7998 39.9461 69.8783 40.9777C69.7438 41.6841 69.811 42.3906 69.7438 43.097C69.7101 43.2764 69.6541 43.4559 69.4522 43.5231C68.8691 43.1979 68.4767 42.7494 68.4879 42.043C68.7906 40.9553 68.5888 39.8452 68.6336 38.7575C68.6449 38.3874 68.2524 38.2192 68.2188 37.8828C68.7234 37.894 69.2279 37.894 69.7213 37.894Z" fill="#90516C"/>
<path d="M80.688 37.894C80.1834 38.0174 80.0039 38.2977 80.0039 38.8584C80.0152 39.677 80.1946 40.5292 79.8918 41.3365C79.3536 41.2356 78.7817 41.2132 78.4004 40.731C78.1986 40.0021 78.2883 39.2508 78.3107 38.5108C78.3219 38.1744 78.5014 37.9501 78.849 37.8828C79.4657 37.894 80.0824 37.894 80.688 37.894Z" fill="#BB4F56"/>
<path d="M68.2306 37.894C68.7576 38.0174 68.9482 38.3201 68.9034 38.8808C68.8473 39.6994 68.8922 40.518 68.8922 41.3365C68.8922 41.6617 68.9258 42.0093 68.5333 42.1663C67.8605 41.9421 67.569 41.2805 67.0195 40.8992C67.726 40.2488 67.4456 39.3966 67.4793 38.6005C67.4905 38.3538 67.3335 38.1295 67.3896 37.8828C67.6699 37.894 67.9502 37.894 68.2306 37.894Z" fill="#8D516E"/>
<path d="M79.0405 48.9392C79.0405 47.717 79.0293 46.4947 79.0293 45.2724C79.2536 44.8912 79.59 44.6781 80.0273 44.6221C80.3861 45.4631 80.1506 46.3489 80.1955 47.2124C80.2291 47.7842 80.2067 48.3561 80.2067 48.9392C79.8142 48.9392 79.4218 48.9392 79.0405 48.9392Z" fill="#BD4F55"/>
<path d="M87.8534 48.9393C87.8534 48.1207 87.9095 47.3022 87.831 46.4836C87.7637 45.7884 88.0104 45.4408 88.6832 45.351C88.8178 45.2165 88.9523 45.2277 89.0981 45.3398C89.6139 46.5285 89.5803 47.7283 89.1878 48.9393C88.7393 48.9393 88.3019 48.9393 87.8534 48.9393Z" fill="#E24D42"/>
<path d="M68.8809 48.9394C68.8921 47.4368 68.8921 45.9342 68.9033 44.4316C69.4527 44.5101 69.6322 45.0596 70.0471 45.3063C70.0471 46.5173 70.0471 47.7284 70.0471 48.9394C69.6658 48.9394 69.2733 48.9394 68.8809 48.9394Z" fill="#91516C"/>
<path d="M78.8595 37.894C78.5792 38.0735 78.5231 38.3426 78.5231 38.6566C78.5456 39.3854 78.5343 40.1143 78.5343 40.8432C78.2316 41.2132 77.8728 41.4935 77.3682 41.4935C77.0542 40.8768 77.2672 40.2152 77.2 39.576C77.1439 39.0154 77.3345 38.4323 77.043 37.9053C77.6485 37.894 78.254 37.894 78.8595 37.894Z" fill="#B44F5A"/>
<path d="M67.7131 45.3064C67.7131 46.5174 67.7131 47.7284 67.7131 48.9395C67.3206 48.9395 66.9393 48.9395 66.5469 48.9395C66.5469 47.7284 66.5469 46.5174 66.5469 45.3064C66.8272 45.0597 67.1412 45.0821 67.4776 45.1606C67.5673 45.2054 67.6458 45.2503 67.7131 45.3064Z" fill="#885171"/>
<path d="M178.244 28.8002C177.918 30.4486 177.01 31.7829 175.978 33.0613C175.732 33.3752 175.373 33.4089 175.003 33.4201C173.702 33.4425 172.558 32.9379 171.426 32.4333C171.448 32.366 171.459 32.2988 171.482 32.2315C172.009 32.3773 172.525 32.5118 173.052 32.6576C173.343 32.7361 173.635 32.8258 173.938 32.8819C174.913 33.0725 175.698 32.9043 176.259 31.9511C176.932 30.8186 177.694 29.7309 178.064 28.4414C178.389 28.4302 178.266 28.632 178.244 28.8002Z" fill="#797A6D"/>
<path d="M89.1877 48.9397C89.1429 47.7398 89.3111 46.5288 89.0195 45.3402C89.2774 45.0374 89.569 44.7683 90.0175 44.8243C90.3651 45.7775 90.1072 46.753 90.1745 47.7286C90.1969 48.1323 90.1745 48.5472 90.1745 48.9509C89.8493 48.9397 89.5241 48.9397 89.1877 48.9397Z" fill="#E74C3F"/>
<path d="M88.178 37.894C87.6509 38.0174 87.4491 38.3089 87.5052 38.8696C87.5724 39.52 87.5164 40.1816 87.5164 40.8319C86.182 40.8319 86.182 40.8319 86.182 39.5424C86.182 39.3742 86.2044 39.206 86.182 39.049C86.0474 38.365 86.3165 37.9837 87.0118 37.8828C87.4042 37.894 87.7855 37.894 88.178 37.894Z" fill="#DB4D46"/>
<path d="M174.006 20.6593C173.434 20.3117 172.952 20.0538 172.492 19.751C171.797 19.2913 171.113 18.8876 170.204 18.91C169.711 18.9324 169.251 18.6857 169.105 18.1475C170.227 17.8335 171.158 18.1139 171.931 18.9549C172.021 19.0558 172.234 19.1118 172.38 19.1118C173.624 19.1231 173.692 19.1791 174.006 20.6593Z" fill="#797A6C"/>
<path d="M67.4008 37.894C67.6587 38.208 67.8718 40.2937 67.6923 40.6413C67.5578 40.9217 67.2214 40.7647 67.0532 40.9553C66.8626 41.202 66.6383 41.1908 66.4028 41.0338C66.6944 40.1591 66.4925 39.2509 66.5486 38.365C66.571 38.0174 66.2122 38.0622 66.0664 37.894C66.5037 37.894 66.9523 37.894 67.4008 37.894Z" fill="#885171"/>
<path d="M180.521 32.1643C180.084 32.355 179.781 32.7026 179.77 33.1623C179.748 34.5416 178.929 35.4835 178.066 36.4478C177.875 35.6629 177.92 35.2144 178.458 34.8555C179.153 34.3734 179.299 33.7678 179.221 33.0053C179.198 32.7923 179.187 32.5568 179.232 32.3437C179.378 31.6485 179.86 31.57 180.521 32.1643Z" fill="#78796B"/>
<path d="M58.9004 48.9392C58.9004 47.7394 58.9004 46.5396 58.9004 45.3397C59.562 45.2052 59.7862 45.4631 59.7526 46.1247C59.6965 47.0554 59.7414 47.9973 59.7414 48.9392C59.4498 48.9392 59.1807 48.9392 58.9004 48.9392Z" fill="#685382"/>
<path d="M129.792 37.894C129.792 37.9389 129.792 37.9838 129.792 38.0286C129.512 38.2753 129.243 38.2417 128.963 38.0286C128.413 38.0286 127.852 38.0286 127.303 38.0286C125.699 38.0286 124.085 38.0286 122.481 38.0286C120.541 38.0286 118.601 38.0286 116.661 38.0286C116.325 38.0286 116 38.0286 115.663 38.0286C115.607 37.995 115.596 37.9725 115.607 37.9389C115.63 37.9053 115.641 37.894 115.663 37.894C120.362 37.894 125.072 37.894 129.792 37.894Z" fill="#F48863"/>
<path d="M173.479 17.71C174.017 18.1585 174.633 18.3603 175.261 18.5734C176.114 18.8649 176.248 19.1677 175.934 20.289C175.519 18.8986 173.804 19.0444 173.479 17.71Z" fill="#797A6D"/>
<path d="M104.159 38.0286C103.497 38.0286 102.824 38.0286 102.163 38.0286C101.445 37.9501 100.705 38.1856 100.01 37.894C103.06 37.894 106.11 37.894 109.16 37.894C109.205 37.995 109.171 38.0735 109.081 38.1295C108.947 38.208 108.812 38.2304 108.666 38.2529C107.938 38.208 107.186 38.4659 106.502 38.0286C105.717 38.0286 104.944 38.0286 104.159 38.0286Z" fill="#F37650"/>
<path d="M173.367 24.438C172.593 24.595 171.865 24.909 171.113 25.2229C170.844 24.5053 171.046 24.2025 171.809 24.281C172.1 24.3147 172.414 24.2698 172.706 24.2586C172.952 24.2474 173.255 24.0007 173.367 24.438Z" fill="#797A6C"/>
<path d="M167.761 28.2396C167.391 27.4995 167.155 26.7258 167.166 25.8848C167.94 26.1763 167.929 26.1763 167.906 26.9164C167.895 27.1855 167.906 27.4659 167.906 27.735C167.929 27.9256 168.142 28.1723 167.761 28.2396Z" fill="#797A6C"/>
<path d="M172.85 25.2793C173.198 25.3242 173.602 25.1784 173.691 25.6381C173.759 25.9409 173.546 26.0867 173.265 26.1315C173.108 26.1652 172.94 26.2661 172.884 25.997C172.806 25.6045 172.581 25.6942 172.335 25.8175C172.189 25.8848 171.976 26.1091 171.909 25.739C171.864 25.5036 172.009 25.3802 172.222 25.3466C172.447 25.3129 172.671 25.3017 172.85 25.2793Z" fill="#838377"/>
<path d="M109.158 38.0286C109.158 37.9838 109.158 37.9389 109.158 37.894C111.322 37.894 113.487 37.894 115.651 37.894C115.651 37.9389 115.651 37.9838 115.651 38.0286C115.37 38.0286 115.09 38.0286 114.821 38.0286C114.103 38.0286 113.374 38.0286 112.657 38.0286C112.107 38.0286 111.547 38.0286 110.997 38.0286C110.717 38.0286 110.448 38.0286 110.167 38.0286C109.82 38.2753 109.483 38.3202 109.158 38.0286Z" fill="#F37E56"/>
<path d="M181.35 34.2274C181.059 34.6198 180.779 34.9226 180.588 35.2814C180.397 35.6402 180.218 35.4833 180.005 35.3599C179.736 35.1917 179.792 35.0235 179.994 34.8553C180.364 34.5413 180.711 34.1713 181.35 34.2274Z" fill="#7E7F72"/>
<path d="M166.516 26.8267C166.28 27.8695 166.022 28.1835 165.282 28.475C165.125 27.578 165.91 27.3985 166.516 26.8267Z" fill="#818276"/>
<path d="M149.258 38.0286C148.977 38.0286 148.708 38.0286 148.428 38.0286C148.091 38.0286 147.766 38.0286 147.43 38.0286C147.037 38.0286 146.656 38.0286 146.264 38.0286C145.927 37.9838 145.568 38.1407 145.266 37.894C146.981 37.894 148.697 37.894 150.413 37.894C150.469 37.9277 150.491 37.9501 150.469 37.9838C150.446 38.0174 150.435 38.0286 150.413 38.0286C150.031 38.0286 149.65 38.0286 149.258 38.0286Z" fill="#F7A689"/>
<path d="M176.361 28.7554C176.417 28.7554 176.473 28.7554 176.529 28.7554C176.294 29.7197 175.576 29.1815 175.049 29.2375C174.836 29.2151 174.612 29.2039 174.399 29.2488C174.253 29.2488 174.073 29.2151 174.062 29.0806C174.04 28.8787 174.242 28.9572 174.365 28.946C175.015 28.8451 175.722 29.1142 176.361 28.7554Z" fill="#8E8F83"/>
<path d="M177.279 19.4258C177.627 19.65 177.896 19.7846 178.12 19.9752C178.3 20.1322 178.356 20.3789 178.165 20.5583C177.941 20.7714 177.75 20.592 177.627 20.4013C177.47 20.1546 177.279 19.9192 177.279 19.4258Z" fill="#7E7F72"/>
<path d="M174.354 30.3478C174.611 30.0787 174.746 29.7535 175.116 30.0563C175.217 30.1347 175.318 30.2693 175.475 30.1796C175.688 30.0563 175.979 29.8432 176.013 30.2693C176.036 30.5609 175.621 30.5496 175.419 30.5496C175.105 30.5721 174.78 30.4375 174.354 30.3478Z" fill="#797A6D"/>
<path d="M177.55 25.2793C177.897 25.3129 178.133 25.4587 178.077 25.84C178.043 26.1091 177.785 26.21 177.595 26.1988C177.225 26.1988 177.326 25.8175 177.225 25.6045C177.281 25.4475 177.393 25.3466 177.55 25.2793Z" fill="#85867A"/>
<path d="M150.424 38.0286C150.424 37.9838 150.424 37.9389 150.424 37.894C151.534 37.894 152.644 37.894 153.754 37.894C153.81 37.9277 153.833 37.9501 153.81 37.9838C153.788 38.0174 153.777 38.0286 153.754 38.0286C153.474 38.0286 153.194 38.0286 152.924 38.0286C152.476 38.0286 152.039 38.0286 151.59 38.0286C151.198 38.0286 150.805 38.0286 150.424 38.0286Z" fill="#F7AF96"/>
<path d="M174.477 31.0876C174.925 31.0315 175.385 31.0988 175.912 30.897C175.318 31.6258 175.06 31.6483 174.477 31.0876Z" fill="#7F8073"/>
<path d="M181.652 32.927C181.17 33.1737 181.204 33.6783 180.744 33.6558C180.632 33.6558 180.452 33.5101 180.531 33.3643C180.71 33.0279 181.002 32.8485 181.652 32.927Z" fill="#838477"/>
<path d="M153.754 38.0286C153.754 37.9837 153.754 37.9389 153.754 37.8828C154.472 37.8828 155.2 37.8828 155.918 37.8716C155.974 37.9052 155.997 37.9389 155.974 37.9725C155.952 38.0061 155.941 38.0174 155.918 38.0174C155.582 38.0174 155.256 38.0174 154.92 38.0174C154.584 38.0174 154.259 38.0174 153.922 38.0174C153.866 38.0286 153.81 38.0286 153.754 38.0286Z" fill="#F8B69F"/>
<path d="M173.367 24.4384C173.21 24.1805 172.918 24.3487 172.705 24.259C173.131 24.0011 173.602 24.1917 174.107 24.0908C173.905 24.4384 173.647 24.4721 173.367 24.4384Z" fill="#D0D0CC"/>
<path d="M155.918 38.0286C155.918 37.9837 155.918 37.9277 155.918 37.8828C156.523 37.8828 157.14 37.8828 157.746 37.8828C157.746 37.9277 157.746 37.9837 157.746 38.0286C157.69 38.0286 157.634 38.0286 157.578 38.0286C157.353 38.0286 157.129 38.0286 156.916 38.0286C156.636 38.0286 156.367 38.0286 156.086 38.0286H156.008H155.918Z" fill="#F8BCA8"/>
<path d="M161.234 38.0286C160.897 38.0286 160.572 38.0286 160.236 38.0286C160.012 38.0062 159.754 38.0959 159.574 37.8828C160.124 37.8828 160.684 37.8828 161.234 37.8828C161.234 37.9277 161.234 37.9837 161.234 38.0286Z" fill="#F9C6B4"/>
<path d="M178.244 28.8002C178.188 28.6768 178.121 28.5535 178.064 28.4301C178.132 28.1049 178.188 27.7798 178.255 27.4434C178.636 27.5331 178.401 27.791 178.412 27.9816C178.39 28.2731 178.446 28.5535 178.244 28.8002Z" fill="#95968B"/>
<path d="M178.413 27.9928C178.368 27.8134 178.424 27.6003 178.256 27.4545C178.312 27.2303 178.368 26.9948 178.424 26.7705C178.559 27.1854 178.615 27.5891 178.413 27.9928Z" fill="#A2A399"/>
<path d="M167.76 28.2395C167.939 28.1049 167.861 27.9031 167.906 27.7349C168.085 28.0264 168.085 28.3404 168.029 28.6768C167.805 28.6095 167.838 28.3852 167.76 28.2395Z" fill="#97988E"/>
<path d="M174.387 29.2374C174.6 29.0243 174.824 29.0243 175.037 29.2262C174.824 29.3832 174.611 29.3944 174.387 29.2374Z" fill="#8B8C80"/>
<path d="M177.538 25.0996C177.571 24.8081 177.471 24.7632 177.213 24.8754C176.428 25.2118 176.237 25.8733 176.26 26.6246C176.271 27.3311 176.327 28.0487 176.36 28.7552C176.417 28.8225 176.473 28.8225 176.529 28.7552C176.887 27.7348 176.54 26.6022 177.067 25.6154C177.112 25.3351 177.302 25.1893 177.538 25.0996Z" fill="#7F8073"/>
<path d="M41.4199 43.0186C41.4199 40.8992 41.4199 40.8992 43.5505 40.9889C43.8981 41.0002 44.1223 41.0114 44.1111 41.4599C44.0999 41.8748 43.8756 41.8972 43.5729 41.8748C43.3823 41.8636 43.1804 41.886 42.9898 41.8748C42.6534 41.8524 42.5749 42.0206 42.5749 42.3233C42.5749 42.6597 42.7767 42.6597 43.0122 42.6597C43.1244 42.6597 43.2365 42.6485 43.3486 42.6597C43.6402 42.6934 44.0439 42.5027 44.0439 43.0746C44.0439 43.6241 43.685 43.5119 43.3598 43.5232C43.2477 43.5232 43.1356 43.5344 43.0234 43.5232C42.7207 43.5007 42.5637 43.5904 42.5749 43.9381C42.5861 44.2408 42.7543 44.2969 43.001 44.2857C43.2253 44.2745 43.4383 44.2969 43.6626 44.2857C43.9766 44.2632 44.0999 44.3866 44.0999 44.7118C44.0999 45.0482 44.0102 45.25 43.6402 45.2052C43.6177 45.2052 43.5841 45.2052 43.5617 45.2052C41.4199 45.3285 41.4199 45.3285 41.4199 43.0186Z" fill="#FEFEFE"/>
<path d="M32.2807 43.0299C32.2807 40.8881 32.2807 40.8881 34.4113 41.0003C34.6916 41.0115 34.9495 40.9778 34.9607 41.404C34.972 41.8301 34.7813 41.931 34.4113 41.8973C34.2207 41.8861 34.03 41.8973 33.8282 41.8973C33.5479 41.8861 33.4469 42.0207 33.4357 42.2898C33.4357 42.5701 33.5479 42.6374 33.817 42.6935C34.1758 42.772 34.815 42.3459 34.8486 43.0748C34.8935 43.927 34.1758 43.4672 33.8058 43.5345C33.2451 43.6242 33.5254 44.0279 33.4357 44.297C33.346 44.5998 33.6824 45.0371 33.1778 45.2165C32.5947 45.4183 32.2807 45.1829 32.2695 44.5325C32.2807 44.0167 32.2807 43.5233 32.2807 43.0299Z" fill="#FDFDFE"/>
<path d="M15.326 43.0637C15.326 42.5927 15.3484 42.133 15.3148 41.662C15.2811 41.2023 15.3708 40.9668 15.9315 40.9668C16.5146 40.9668 16.5482 41.2359 16.5258 41.6732C16.5034 42.2788 16.5595 42.8843 16.5146 43.4898C16.4585 44.1178 16.694 44.3308 17.3108 44.2635C17.6472 44.2299 18.0508 44.1402 18.0396 44.7457C18.0284 45.3512 17.6135 45.2054 17.2883 45.2054C15.3372 45.2391 15.3372 45.2391 15.3372 43.3104C15.326 43.2319 15.326 43.1534 15.326 43.0637Z" fill="#FCFDFD"/>
<path d="M25.4947 43.1534C25.4947 43.6244 25.4835 44.0841 25.4947 44.5551C25.506 44.9588 25.4835 45.2279 24.9453 45.2279C24.4407 45.2279 24.2725 45.0709 24.2949 44.5663C24.3286 43.5459 24.3286 42.5255 24.2949 41.5163C24.2837 41.0341 24.508 40.9893 24.9004 40.9893C25.2705 40.9893 25.5396 41.0229 25.506 41.5051C25.4723 42.0545 25.4947 42.604 25.4947 43.1534Z" fill="#FCFCFD"/>
<path d="M139.244 23.1709C139.244 23.1597 139.255 23.1597 139.255 23.1484L139.244 23.1709Z" fill="#EC1D24"/>
<path d="M160.09 32.7025C160.079 32.2876 160.169 31.8839 159.485 31.9288C158.408 31.9848 157.32 31.9175 156.244 31.9624C155.683 31.9848 155.56 31.7942 155.56 31.2672C155.582 28.5311 155.571 25.8063 155.571 23.0702C155.571 21.6349 155.571 21.6685 154.147 21.6237C153.497 21.6012 153.373 21.8143 153.384 22.4086C153.407 25.5484 153.384 28.6993 153.373 31.8391C153.373 32.0633 153.373 32.2876 153.373 32.5119C153.115 32.2764 152.992 32.0297 152.891 31.783C151.489 28.6096 150.043 25.4474 148.697 22.2516C148.383 21.5115 147.867 21.7134 147.363 21.6237C146.836 21.534 146.724 21.8816 146.556 22.2404C145.087 25.5035 143.606 28.7666 142.115 32.0185C142.003 32.2652 141.98 32.5791 141.633 32.7361C141.633 29.2824 141.633 25.8848 141.622 22.4983C141.622 22.2516 141.79 21.8367 141.442 21.7807C140.87 21.691 140.265 21.6685 139.715 21.7919C139.357 21.8704 139.334 22.0274 139.3 22.3413C139.278 22.5544 139.177 22.9244 139.256 23.1487C139.267 25.6829 139.278 28.2171 139.3 30.7514C139.312 31.6036 138.942 32.7249 139.435 33.2295C139.973 33.779 141.117 33.2968 141.98 33.4201C143.057 33.5771 143.719 33.2295 143.965 32.153C144.335 30.5495 145.333 29.9776 146.959 30.2355C147.879 30.3813 149 30.0113 149.74 30.4037C150.525 30.8186 150.671 32.0185 151.086 32.8819C151.276 33.2856 151.501 33.4426 151.96 33.4426C154.45 33.4201 156.95 33.4089 159.44 33.4426C160.101 33.4538 160.101 33.151 160.09 32.7025ZM145.412 28.8899C146.04 27.3425 146.645 25.8623 147.296 24.2812C148.024 25.8735 148.697 27.3313 149.415 28.8899C148.047 28.8899 146.802 28.8899 145.412 28.8899Z" fill="#EC1D24"/>
<path d="M78.7257 22.0386C76.9652 21.7471 75.1935 21.9601 73.4218 21.9713C72.9733 21.9713 73.0742 22.3189 73.0742 22.5656C73.063 24.3037 73.0742 26.0418 73.0742 27.7686C73.0742 29.2824 73.0742 30.7962 73.0742 32.3101C73.0742 33.6108 73.0742 33.5772 74.4086 33.5996C74.9917 33.6108 75.0926 33.3977 75.0702 32.8931C75.0365 31.8727 75.0926 30.8523 75.0477 29.8319C75.0141 29.2264 75.1823 29.0133 75.8215 29.047C76.8082 29.103 77.8174 29.1815 78.793 28.9348C80.5086 28.5199 81.4057 27.2304 81.3721 25.3017C81.3272 23.5076 80.4077 22.3077 78.7257 22.0386ZM76.7409 27.9032C75.0589 27.9481 75.0589 27.9481 75.0589 26.266C75.0589 25.9857 75.0589 25.7166 75.0589 25.4363C75.0814 25.4363 75.0365 25.4363 75.0589 25.4363C75.0589 24.6962 75.0702 23.4851 75.1935 23.2833C75.3953 22.9805 76.584 23.1039 77.4137 23.1263C78.5799 23.1599 79.1967 23.6533 79.3537 24.8083C79.6452 26.8491 78.8042 27.8359 76.7409 27.9032Z" fill="#EC1D24"/>
<path d="M120.137 45.3065C119.251 44.6225 118.803 43.5908 117.962 42.6713C117.962 43.2544 117.962 43.7254 117.962 44.1963C117.95 45.4859 118.062 45.2392 116.851 45.284C116.84 44.0954 116.807 42.918 116.807 41.7294C116.807 41.4939 116.627 41.1015 117.02 41.0342C117.401 40.9781 117.849 40.8548 118.163 41.2697C118.646 41.9088 119.139 42.5368 119.632 43.1647C119.991 43.2768 119.868 42.9853 119.879 42.8395C119.935 42.234 119.767 41.6061 119.98 41.0117C121.269 41.0117 121.079 40.8772 121.09 42.0882C121.101 42.8059 121.045 43.5235 121.101 44.23C121.18 45.0037 120.955 45.3962 120.137 45.3065Z" fill="#FEFDFD"/>
<path d="M119.992 41.0117C119.992 41.8415 119.992 42.6713 119.992 43.6132C119.745 43.4787 119.678 43.3329 119.633 43.1647C119.958 42.7834 119.734 42.3349 119.801 41.92C119.857 41.6172 119.666 41.2584 119.992 41.0117Z" fill="#F48862"/>
<path d="M88.8063 28.8673C88.5372 28.4636 88.5372 28.2842 88.9633 27.9815C90.2753 27.0395 90.5556 25.7836 90.2192 24.1801C89.9165 22.7336 89.2324 22.0944 87.3486 22.0047C86.9673 21.9823 86.4067 21.9823 86.0254 21.9711C86.0366 21.9823 86.0478 22.0047 86.0142 21.9711C84.848 21.9599 83.693 21.9823 82.5268 21.915C81.9213 21.8814 81.798 22.0944 81.798 22.6551C81.8204 25.7388 81.7868 28.8225 81.7868 31.9061C81.7756 33.5769 81.7756 33.5657 83.4912 33.5545C83.9846 33.5545 84.1864 33.4536 84.1528 32.9153C84.1079 32.1977 84.1304 31.48 84.1416 30.7736C84.1528 30.1456 84.1304 29.0243 84.2537 28.9346C84.6125 28.6767 85.375 28.8113 85.9918 28.7552C85.9918 28.7328 85.9806 28.7215 86.003 28.7552C86.0254 28.7215 86.0142 28.744 86.003 28.7552C86.4179 28.7888 86.5637 29.2037 86.7207 29.4504C87.472 30.639 88.2345 31.8164 88.9633 33.0275C89.1876 33.3975 89.4231 33.5881 89.8828 33.5321C90.4435 33.4648 91.0154 33.4424 91.6882 33.3975C90.7126 31.8276 89.7819 30.3363 88.8063 28.8673ZM86.1936 27.4544C86.1824 27.4544 86.16 27.4544 86.1488 27.4544C86.1376 27.4769 86.1263 27.4881 86.1151 27.5105C86.1039 27.4881 86.1039 27.4769 86.0927 27.4544C86.0591 27.4544 86.0366 27.4544 86.003 27.4544C85.3302 27.4656 84.5453 27.746 84.2649 27.275C84.0743 26.9498 84.1752 26.064 84.1528 25.436C84.1304 24.8641 84.164 24.4044 84.1416 23.7092C84.0743 23.0476 84.3546 22.9915 84.9377 22.9579C85.3975 22.9354 85.6554 22.9467 86.0142 22.9354C86.0366 22.9354 86.0591 22.9354 86.0927 22.9354C86.1039 22.913 86.1151 22.8906 86.1263 22.8682C86.1263 22.8794 86.1263 22.8906 86.1263 22.8906C86.1376 22.913 86.1488 22.913 86.16 22.9242C86.1712 22.9242 86.1824 22.9242 86.1936 22.9242C87.5056 23.0139 88.055 23.6307 88.1335 25.1221C88.212 26.5574 87.6402 27.2414 86.1936 27.4544Z" fill="#EC1D24"/>
<path d="M86.0137 28.7554C86.0137 28.7554 86.0249 28.7554 86.0137 28.7554C86.0137 28.7666 86.0137 28.7778 86.0137 28.7666C86.0249 28.7778 86.0249 28.7666 86.0137 28.7554C86.0249 28.7666 86.0249 28.7554 86.0249 28.7554C86.0249 28.7554 86.0249 28.7554 86.0137 28.7554C86.0249 28.7554 86.0249 28.7554 86.0137 28.7554Z" fill="#EC1D24"/>
<path d="M86.0247 21.9709C86.0135 21.9597 86.0022 21.9373 86.0247 21.9709V21.9709Z" fill="#EC1D24"/>
<path d="M98.8656 45.0818C98.6301 44.6557 98.4058 44.2296 98.0246 43.5343C97.9909 44.5323 98.2152 45.62 96.8359 45.1379C96.8359 43.7698 96.8359 42.4018 96.8359 41.0338C97.6545 40.6077 98.4731 40.5964 99.2805 41.0338C100.447 41.8523 100.435 42.7158 99.2132 43.6016C99.415 43.8932 99.6281 44.1735 99.8075 44.4763C99.9308 44.6781 100.245 44.8575 100.088 45.1042C99.9533 45.3173 99.6281 45.2051 99.3926 45.2051C99.2356 45.1939 99.0562 45.1266 98.8656 45.0818Z" fill="#FEFDFD"/>
<path d="M99.3019 41.0338C98.4834 41.0338 97.6648 41.0338 96.8574 41.0338C97.1826 40.047 96.9359 39.0266 97.0144 38.0286C97.205 38.0286 97.4069 38.0062 97.5863 38.0286C98.2142 38.1183 99.201 37.6922 99.3916 38.2641C99.6608 39.1051 99.7168 40.1255 99.3019 41.0338Z" fill="#F05841"/>
<path d="M90.3539 40.8434C88.8289 40.8209 89.042 41.0228 89.0195 39.4865C89.0195 39.0044 89.0195 38.511 89.0195 38.0288C89.4681 38.0288 89.9054 38.0288 90.3539 38.0288C90.3539 38.9707 90.3539 39.9014 90.3539 40.8434Z" fill="#E74C3F"/>
<path d="M130.118 45.3176C127.819 45.2728 126.843 43.759 127.797 41.7406C128.01 41.292 128.38 41.1126 128.795 40.978C129.254 40.6865 129.714 40.395 130.241 40.8771C131.037 41.135 130.757 41.7854 130.768 42.3237C130.499 42.4246 130.297 42.2339 130.05 42.1891C129.624 42.0994 129.277 42.2115 129.03 42.5703C128.795 42.918 128.75 43.2992 129.019 43.6468C129.288 44.0057 129.647 44.1739 130.118 44.0169C130.32 43.9496 130.499 43.7814 130.746 43.8711C130.791 44.443 131.026 45.1158 130.118 45.3176Z" fill="#FEFDFD"/>
<path d="M130.745 43.8487C130.196 44.3421 129.601 44.5327 128.996 43.972C128.503 43.5235 128.503 42.9516 128.828 42.4134C129.198 41.7966 129.893 41.7742 130.756 42.3237C131.283 42.8955 131.272 43.4226 130.745 43.8487Z" fill="#F3835D"/>
<path d="M130.239 40.877C129.757 40.8209 129.275 40.877 128.793 40.9779C129.129 40.0136 128.871 39.0044 128.95 38.0288C129.23 38.0288 129.499 38.0288 129.78 38.0288C130.06 38.0288 130.329 38.0288 130.61 38.0288C130.61 38.6568 130.61 39.2959 130.61 39.9239C130.621 40.3051 130.565 40.6415 130.239 40.877Z" fill="#F3815A"/>
<path d="M109.484 45.1606C109.327 43.9383 108.407 44.656 107.824 44.5102C107.421 44.5551 107.499 44.869 107.488 45.1157C107.196 45.34 106.849 45.2054 106.535 45.2167C106.288 45.2167 106.209 45.0597 106.31 44.8242C106.445 44.4429 106.58 44.0617 106.714 43.6804C106.837 42.6712 107.062 41.6957 107.735 40.8883C109.394 40.5743 109.865 41.0004 109.854 42.8282C110.123 43.5795 110.392 44.342 110.661 45.1045C110.235 45.2727 109.854 45.2054 109.484 45.1606Z" fill="#FEFDFD"/>
<path d="M107.667 41.034C107.353 41.9198 107.028 42.7945 106.714 43.6803C106.389 43.4673 106.501 43.1421 106.501 42.8618C106.49 41.247 106.501 39.6435 106.501 38.0288C107.275 38.0288 108.06 38.0288 108.833 38.0288C109.282 38.8474 109.091 39.7108 109.002 40.563C108.968 40.8546 108.721 40.9106 108.452 40.9331C108.183 40.9443 107.892 40.8209 107.667 41.034Z" fill="#F26A4A"/>
<path d="M106.31 44.8242C106.534 45.5867 107.072 45.0933 107.487 45.1158C107.162 45.5082 106.702 45.2279 106.321 45.3288C106.119 45.1606 106.108 44.9924 106.31 44.8242Z" fill="#F26C4B"/>
<path d="M77.3689 41.4936C77.6829 41.146 78.0978 40.9778 78.5351 40.8433C79.0061 40.9666 79.5555 40.8433 79.8919 41.3367C79.8247 41.5497 79.7574 41.7628 79.6901 41.9758C79.421 42.2786 79.0734 41.8973 78.7594 42.0767C78.8491 42.4804 79.4098 42.3346 79.4995 42.7159C80.2396 43.1981 80.318 43.8597 80.0153 44.611C79.735 44.9137 79.3986 45.1268 79.0173 45.2613C78.5127 45.3398 78.0193 45.3286 77.5371 45.1492C77.3465 44.9137 76.8307 44.8576 77.1559 44.3306C77.3465 44.0279 77.4474 43.8821 77.7614 44.14C77.8287 44.1961 77.8848 44.2746 77.952 44.2858C78.3221 44.3755 78.8155 44.4988 78.9837 44.0839C79.1519 43.669 78.6248 43.6018 78.3669 43.4896C77.1334 42.9738 76.9877 42.7159 77.3689 41.4936Z" fill="#FDFCFD"/>
<path d="M79.5112 42.7159C79.3543 42.671 79.186 42.6486 79.0403 42.5813C78.7599 42.4467 78.1881 42.5028 78.3899 41.987C78.5469 41.5609 78.9842 41.7852 79.3094 41.8861C79.4327 41.9197 79.5673 41.9421 79.6906 41.9758C79.6346 42.2225 79.5673 42.4692 79.5112 42.7159Z" fill="#BD5359"/>
<path d="M90.0168 44.8239C89.7253 45.0818 89.3777 45.2276 89.0188 45.3398C88.9067 45.351 88.7946 45.351 88.6824 45.3622C87.9424 45.3398 87.1911 45.3285 86.6752 44.6669C86.3501 43.5905 86.4958 42.4916 86.507 41.4151C86.5182 40.6862 87.1798 41.1572 87.5162 41.0002C87.8078 41.7963 87.5947 42.6149 87.6508 43.4335C87.6844 43.9381 87.7405 44.3754 88.4021 44.3754C89.0637 44.3642 89.1534 43.9269 89.1646 43.4335C89.1758 43.0186 89.1758 42.6149 89.1758 42.2C89.1758 41.0114 89.1758 41.0114 90.342 41.045C90.342 41.9757 90.342 42.9177 90.342 43.8484C90.3532 44.196 90.1626 44.4987 90.0168 44.8239Z" fill="#FEFDFD"/>
<path d="M139.939 44.3419C140.051 45.0259 139.771 45.2277 139.076 45.2053C137.259 45.1604 137.259 45.1941 137.259 43.3775C137.259 42.7944 137.259 42.2225 137.259 41.6394C137.259 41.4712 137.225 41.2021 137.304 41.1685C138.055 40.8097 138.863 41.0003 139.648 41.0227C140.163 41.0339 139.838 41.5497 139.939 41.8189C139.468 42.0543 138.941 41.7628 138.47 41.9871C138.459 42.1553 138.448 42.3235 138.437 42.4804C138.863 42.7047 139.345 42.4244 139.771 42.6486C139.917 43.5457 139.917 43.5345 139.098 43.5569C138.885 43.5681 138.661 43.4897 138.459 43.6466C138.459 43.8148 138.459 43.9718 138.459 44.14C138.93 44.3979 139.468 44.0727 139.939 44.3419Z" fill="#FEFEFE"/>
<path d="M138.459 43.6581C138.582 43.4451 138.795 43.4899 138.964 43.5124C139.648 43.6021 139.939 43.3554 139.76 42.6602C140.085 43.5012 139.995 43.6357 139.188 43.6581C138.952 43.6694 138.706 43.6581 138.459 43.6581Z" fill="#F59777"/>
<path d="M138.471 41.9983C138.93 41.6955 139.457 41.9759 139.94 41.8301C139.48 42.1777 138.964 41.931 138.471 41.9983Z" fill="#F5906E"/>
<path d="M139.939 44.3419C139.457 44.1961 138.919 44.4989 138.459 44.1513C138.941 44.241 139.479 43.9719 139.939 44.3419Z" fill="#F59777"/>
<path d="M139.772 42.6601C139.335 42.5816 138.852 42.8395 138.438 42.4919C138.886 42.5704 139.368 42.3349 139.772 42.6601Z" fill="#F5906E"/>
<path d="M58.5977 45.0934C58.5977 43.7478 58.5977 42.4134 58.5977 41.0678C59.8648 40.8772 59.8648 40.8772 59.8648 42.077C59.8648 42.761 59.8648 43.445 59.8648 44.129C59.8648 45.3289 59.7975 45.3849 58.5977 45.0934Z" fill="#F8F7F9"/>
<path d="M107.668 41.034C109.103 40.9555 108.834 39.9127 108.823 39.0156C108.823 38.6904 108.823 38.354 108.823 38.0288C108.935 38.0288 109.047 38.0288 109.159 38.0288C109.496 38.0288 109.821 38.0288 110.157 38.0288C110.157 39.2062 110.146 40.3948 110.157 41.5722C110.157 42.0208 110.112 42.4469 109.855 42.8169C109.799 42.6599 109.754 42.5029 109.698 42.3572C109.193 40.9219 109.193 40.9219 107.668 41.034Z" fill="#F26E4C"/>
<path d="M66.4029 41.0454C66.6159 41.0229 66.8402 40.9893 67.0532 40.9669C67.9503 40.8772 67.9839 41.8303 68.5222 42.1779C68.8137 42.6152 69.1053 43.0413 69.3968 43.4787C69.7669 43.5459 69.5987 43.3105 69.5762 43.1535C69.5762 42.6152 69.565 42.0658 69.565 41.5275C69.565 41.2921 69.5202 41.0229 69.879 40.9893C70.5182 40.9332 70.7985 41.1351 70.7312 41.8639C70.6527 42.761 70.6751 43.6805 70.72 44.5888C70.7424 45.127 70.563 45.3513 70.036 45.3177C69.408 45.3513 69.2847 44.7233 68.8922 44.443C68.5446 43.9608 68.2082 43.4899 67.8606 43.0077C67.4457 42.9516 67.6475 43.2656 67.6251 43.4226C67.5242 44.0393 67.7933 44.6785 67.4793 45.284C67.1654 45.2952 66.8514 45.3064 66.5374 45.3064C66.2347 44.4094 66.4589 43.4899 66.4029 42.5928C66.3916 42.077 66.4029 41.5612 66.4029 41.0454Z" fill="#FDFDFD"/>
<path d="M167.951 30.7177C167.121 30.1234 166.953 29.3609 166.908 28.4638C166.896 28.3181 166.93 28.1162 166.627 28.1162C166.56 28.3068 166.425 28.5087 166.414 28.7105C166.369 29.4394 166.022 29.7197 165.293 29.5852C165.08 29.5515 164.71 29.4955 164.676 29.8206C164.654 30.0898 164.979 30.2243 165.214 30.2467C166.022 30.3365 166.168 30.8074 166.067 31.5026C166.022 31.8278 166.055 32.1642 166.055 32.4894C166.055 32.7137 166.055 32.9155 165.798 33.0501C165.315 33.2968 164.665 33.3529 164.474 33.9472C164.261 34.62 165.147 34.7545 165.248 35.304C165.248 35.3152 165.327 35.3152 165.383 35.3152C165.551 34.6536 164.721 33.6668 166.089 33.3416C166.089 33.7677 166.089 34.149 166.089 34.5303C166.089 34.7209 166.089 34.9003 166.089 35.2816C166.224 34.9115 166.291 34.7209 166.358 34.5303C166.65 33.8799 166.381 33.0501 167.042 32.5343C167.244 32.4782 167.435 32.4109 167.547 32.2091C168.354 31.626 168.534 31.1438 167.951 30.7177ZM167.39 32.0633C167.21 32.1642 167.042 32.2764 166.863 32.3773C166.639 32.0072 166.941 31.6484 166.908 31.2784C166.885 31.099 166.829 30.7738 167.143 30.7514C167.48 30.7289 167.603 31.0205 167.648 31.3008C167.704 31.5924 167.524 31.8278 167.39 32.0633Z" fill="#818276"/>
<path d="M67.4902 45.2839C67.4902 44.3981 67.4902 43.5122 67.4902 42.5591C67.793 42.7049 67.8378 42.8506 67.8715 43.0076C67.5575 43.7589 67.793 44.5438 67.7145 45.3176C67.6472 45.2951 67.5687 45.2839 67.4902 45.2839Z" fill="#9E6E88"/>
<path d="M69.5754 43.1533C69.7212 43.3327 69.7997 43.557 69.6202 43.714C69.5305 43.7925 69.4072 43.6243 69.3848 43.4785C69.553 43.4224 69.5193 43.2655 69.5754 43.1533Z" fill="#CFB2BE"/>
<path d="M97.9902 42.4918C98.0575 42.2787 97.8332 41.8975 98.3042 41.8975C98.6518 41.8975 98.977 42.0208 98.977 42.4357C98.977 42.8506 98.6743 42.9739 98.3154 42.9964C97.8893 43.03 98.0351 42.7048 97.9902 42.4918Z" fill="#F1644E"/>
<path d="M108.43 41.7627C108.609 42.2897 108.744 42.6261 108.833 42.9625C108.889 43.1756 109.158 43.4559 108.856 43.6017C108.631 43.7138 108.273 43.7138 108.06 43.6129C107.768 43.4783 108.015 43.1868 108.071 42.9737C108.149 42.6261 108.273 42.2897 108.43 41.7627Z" fill="#F37455"/>
<path d="M12.0014 19.1593C12.4172 18.5583 12.3785 17.8112 11.915 17.4906C11.4515 17.17 10.7388 17.3973 10.3231 17.9982C9.90733 18.5992 9.94603 19.3463 10.4095 19.6669C10.873 19.9876 11.5857 19.7603 12.0014 19.1593Z" fill="white"/>
</svg>
