<svg width="40" height="40" viewBox="0 0 40 40" fill="none" xmlns="http://www.w3.org/2000/svg">
<path fill-rule="evenodd" clip-rule="evenodd" d="M0 19.9389C0 8.92691 8.92691 0 19.9389 0C30.9509 0 39.8778 8.92691 39.8778 19.9389C39.8778 30.9513 30.9509 39.8782 19.9389 39.8782C8.92691 39.8782 0 30.9513 0 19.9389Z" fill="#339DC3"/>
<path fill-rule="evenodd" clip-rule="evenodd" d="M32.2459 12.3055C31.3404 12.707 30.3666 12.9786 29.3452 13.1C30.3881 12.4753 31.1884 11.4866 31.5663 10.307C30.5903 10.8855 29.5095 11.3059 28.3597 11.532C27.4383 10.551 26.1259 9.9375 24.6728 9.9375C21.8844 9.9375 19.623 12.199 19.623 14.9873C19.623 15.3833 19.6677 15.7684 19.7543 16.1382C15.5575 15.9277 11.8368 13.9171 9.3459 10.8615C8.91136 11.6073 8.66227 12.4753 8.66227 13.4004C8.66227 15.152 9.55427 16.6982 10.9084 17.6037C10.0812 17.5775 9.3019 17.3506 8.62154 16.9717L8.62081 17.0357C8.62081 19.4822 10.3623 21.5226 12.6721 21.9866C12.2488 22.1022 11.8019 22.164 11.3419 22.164C11.0157 22.164 10.6997 22.1324 10.3914 22.0739C11.0343 24.0797 12.8986 25.5393 15.1088 25.5804C13.3801 26.935 11.2034 27.7422 8.83681 27.7422C8.4299 27.7422 8.02699 27.7186 7.63281 27.6717C9.86663 29.1048 12.5215 29.9408 15.3732 29.9408C24.6615 29.9408 29.7408 22.2466 29.7408 15.5724C29.7408 15.3539 29.7361 15.1357 29.7259 14.9193C30.7132 14.2073 31.5692 13.3182 32.2459 12.3055Z" fill="#F1F2F2"/>
</svg>
