<svg width="184" height="64" viewBox="0 0 184 64" fill="none" xmlns="http://www.w3.org/2000/svg">
<path d="M39.0853 52.1745C50.053 52.1745 58.944 43.2834 58.944 32.3158C58.944 21.3481 50.053 12.457 39.0853 12.457C28.1176 12.457 19.2266 21.3481 19.2266 32.3158C19.2266 43.2834 28.1176 52.1745 39.0853 52.1745Z" fill="#5F259F"/>
<path d="M119.726 43.6529V36.4169C119.726 34.6481 119.082 33.7637 117.394 33.7637C116.751 33.7637 116.108 33.8441 115.545 34.0049V44.5373C115.545 44.8589 115.223 45.1805 114.902 45.1805H112.329C112.007 45.1805 111.686 44.8589 111.686 44.5373V32.2361C111.686 31.8341 111.927 31.5125 112.329 31.3517C113.937 30.7889 115.706 30.4673 117.474 30.4673C121.494 30.4673 123.665 32.5577 123.665 36.4973V44.6981C123.665 45.0197 123.344 45.3413 123.022 45.3413H121.494C120.61 45.3413 119.886 44.6981 119.806 43.8137C119.726 43.7333 119.726 43.6529 119.726 43.6529ZM129.695 39.3113L129.615 40.2761C129.615 41.6429 130.499 42.3665 131.946 42.3665C133.072 42.3665 134.198 42.0449 135.162 41.4821C135.243 41.4821 135.404 41.4017 135.484 41.4017C135.645 41.4017 135.806 41.4821 135.966 41.6429C136.127 41.8037 136.208 41.9645 136.288 42.1253C136.529 42.4469 136.69 42.8489 136.77 43.2509C136.77 43.8137 136.449 44.2961 135.966 44.6177C134.68 45.2609 133.233 45.6629 131.786 45.5825C130.258 45.6629 128.73 45.1805 127.444 44.2157C126.318 43.1705 125.675 41.7233 125.675 40.1957V35.8541C125.675 32.3969 127.926 30.3065 131.625 30.3065C135.323 30.3065 137.414 32.3165 137.414 35.8541V38.5073C137.414 38.8289 137.092 39.1505 136.77 39.1505H129.776L129.695 39.3113ZM129.615 36.8993H133.796V35.7737C133.876 34.6481 133.152 33.6833 132.027 33.5225C131.946 33.5225 131.786 33.5225 131.705 33.5225C130.66 33.4421 129.695 34.2461 129.615 35.2913C129.615 35.4521 129.615 35.6129 129.615 35.6933V36.8993ZM157.916 39.3113L157.835 40.2761C157.835 41.6429 158.72 42.3665 160.167 42.3665C161.292 42.3665 162.418 42.0449 163.383 41.4821C163.463 41.4821 163.624 41.4017 163.704 41.4017C163.865 41.4017 164.026 41.4821 164.187 41.6429C164.267 41.8037 164.428 41.9645 164.508 42.1253C164.75 42.4469 164.91 42.8489 164.991 43.2509C164.991 43.8137 164.669 44.2961 164.187 44.6177C162.9 45.2609 161.453 45.6629 160.006 45.5825C158.478 45.6629 156.951 45.1805 155.664 44.2157C154.539 43.1705 153.896 41.7233 153.896 40.1957V35.8541C153.896 32.3969 156.147 30.3065 159.845 30.3065C163.544 30.3065 165.634 32.3165 165.634 35.8541V38.5073C165.634 38.8289 165.312 39.1505 164.991 39.1505H157.916V39.3113ZM157.835 36.8993H162.016V35.7737C162.096 34.6481 161.373 33.6833 160.247 33.6029C160.167 33.6029 160.006 33.6029 159.926 33.6029C158.88 33.5225 157.916 34.3265 157.835 35.3717C157.835 35.5325 157.835 35.6933 157.835 35.8541V36.8993ZM92.5506 45.3413H94.0782C94.3998 45.3413 94.7214 45.0197 94.7214 44.6981V36.4169C94.7214 32.6381 92.7114 30.3869 89.415 30.3869C88.4502 30.3869 87.5658 30.5477 86.6814 30.8693V26.769C86.6814 25.8846 85.9578 25.161 84.993 25.0806H83.4654C83.1438 25.0806 82.8222 25.4022 82.8222 25.7238V44.6177C82.8222 44.9393 83.1438 45.2609 83.4654 45.2609H86.0382C86.3598 45.2609 86.6814 44.9393 86.6814 44.6177V34.1657C87.3246 33.9245 87.8874 33.8441 88.5306 33.8441C90.219 33.8441 90.8622 34.6481 90.8622 36.4973V43.7333C90.9426 44.6177 91.6662 45.2609 92.5506 45.3413ZM109.274 36.0149V40.1153C109.274 43.5725 106.942 45.6629 103.083 45.6629C99.3041 45.6629 96.8922 43.5725 96.8922 40.1153V36.0149C96.8922 32.5577 99.2237 30.4673 103.083 30.4673C106.942 30.4673 109.274 32.5577 109.274 36.0149ZM105.415 36.0149C105.495 34.8893 104.691 33.9245 103.565 33.7637C103.405 33.7637 103.324 33.7637 103.163 33.7637C102.038 33.6029 101.073 34.4069 100.912 35.5325C100.912 35.6933 100.912 35.8541 100.912 36.0149V40.1153C100.912 41.3213 101.877 42.3665 103.163 42.3665C104.369 42.3665 105.415 41.4017 105.415 40.1153V36.0149ZM80.6514 34.0853C80.6514 37.6229 77.9982 40.0349 74.4606 40.0349C73.6566 40.0349 72.8526 39.8741 72.0486 39.5525V44.5373C72.0486 44.8589 71.727 45.1805 71.4054 45.1805H68.8326C68.511 45.1805 68.1895 44.8589 68.1895 44.5373V26.8494C68.1895 26.4474 68.511 26.1258 68.8326 25.965C70.521 25.4022 72.2094 25.0806 73.9782 25.0806C77.9982 25.0806 80.7318 27.4926 80.7318 31.2713L80.6514 34.0853ZM76.6314 31.1909C76.6314 29.4222 75.4254 28.5378 73.737 28.5378C73.1742 28.5378 72.6114 28.6182 72.0486 28.8594V36.1757C72.6114 36.4973 73.1742 36.6581 73.8174 36.6581C75.2646 36.8189 76.551 35.7737 76.7118 34.3265C76.7118 34.2461 76.7118 34.0853 76.7118 34.0049V31.1909H76.6314ZM152.288 34.0853C152.288 37.6229 149.634 40.0349 146.097 40.0349C145.293 40.0349 144.489 39.8741 143.685 39.5525V44.5373C143.685 44.8589 143.363 45.1805 143.042 45.1805H140.469C140.147 45.1805 139.826 44.8589 139.826 44.5373V26.8494C139.826 26.4474 140.067 26.1258 140.469 25.965C142.077 25.4022 143.846 25.0806 145.614 25.0806C149.634 25.0806 152.368 27.4926 152.368 31.2713L152.288 34.0853ZM148.268 31.1909C148.268 29.4222 147.062 28.5378 145.373 28.5378C144.81 28.5378 144.248 28.6182 143.685 28.8594V36.1757C144.248 36.4973 144.81 36.6581 145.454 36.6581C146.901 36.8189 148.187 35.7737 148.348 34.3265C148.348 34.2461 148.348 34.0853 148.348 34.0049V31.1909H148.268Z" fill="#5F259F"/>
<path d="M48.0909 27.0895C48.0909 26.2855 47.4477 25.6423 46.6437 25.6423H43.9905L37.8801 18.6475C37.3173 18.0043 36.3525 17.7631 35.5485 18.0043L33.4581 18.6475C33.2169 18.7279 33.0561 18.9691 33.1365 19.2907C33.1365 19.3711 33.2169 19.4515 33.2169 19.4515L39.8901 25.8031H29.8401C29.5185 25.8031 29.2773 26.0443 29.2773 26.2855C29.2773 26.2855 29.2773 26.2855 29.2773 26.3659V27.4915C29.2773 28.2955 29.9205 28.9387 30.7245 28.9387H32.2521V34.2451C32.2521 38.2651 34.3425 40.5967 37.8801 40.5967C38.9253 40.5967 39.9705 40.4359 41.0157 40.0339V43.5715C41.0157 44.5363 41.7393 45.3402 42.7041 45.3402H42.7845H44.3121C44.6337 45.3402 44.9553 45.0186 44.9553 44.697V28.7779H47.5281C47.8497 28.7779 48.0909 28.6171 48.0909 28.2955V28.2151V27.0895ZM41.0157 36.6571C40.2921 36.9787 39.5685 37.1395 38.7645 37.1395C36.9957 37.1395 36.1113 36.2551 36.1113 34.2451V28.8583H41.0157V36.6571Z" fill="white"/>
</svg>
