<svg width="184" height="64" viewBox="0 0 184 64" fill="none" xmlns="http://www.w3.org/2000/svg">
<path d="M52.7805 32.4703C52.7805 30.1208 52.7742 27.7712 52.7868 25.4153C52.7868 25.0733 52.6855 24.991 52.3625 25.0036C51.6975 25.029 51.0326 25.0036 50.3676 25.0163C50.1143 25.0226 50.0066 24.9656 50.0066 24.6806C50.0193 22.9074 50.0193 21.1341 50.0066 19.3545C50.0066 19.0632 50.1143 19.0189 50.3676 19.0252C53.9141 19.0315 57.467 19.0315 61.0135 19.0189C61.3175 19.0189 61.3998 19.1392 61.4758 19.3989C62.8311 24.041 64.199 28.6831 65.5607 33.3253C65.6177 33.509 65.6747 33.6926 65.7253 33.8763C65.7633 34.0029 65.776 34.1486 65.9533 34.1549C66.1306 34.1549 66.1496 34.0156 66.1876 33.8826C66.6499 32.483 67.1249 31.0897 67.5872 29.6901C68.7272 26.2766 69.8672 22.8694 70.9881 19.4495C71.1021 19.1012 71.2604 19.0125 71.6088 19.0189C74.997 19.0315 78.3788 19.0315 81.767 19.0189C82.1153 19.0189 82.242 19.0759 82.2357 19.4622C82.2103 21.1594 82.2103 22.863 82.2357 24.5666C82.242 24.9466 82.128 25.0353 81.767 25.0226C81.1337 24.991 80.4941 25.029 79.8608 25.01C79.5631 25.0036 79.4554 25.0733 79.4554 25.3963C79.4681 30.1271 79.4681 34.8579 79.4554 39.595C79.4554 39.8927 79.5188 40.0067 79.8418 39.994C80.5384 39.9687 81.2287 39.994 81.9253 39.9814C82.1533 39.975 82.2357 40.0384 82.2293 40.279C82.223 42.084 82.223 43.8889 82.2293 45.6938C82.2293 45.9218 82.166 45.9978 81.9317 45.9978C78.6195 45.9915 75.3073 45.9915 71.9951 45.9978C71.6278 45.9978 71.6847 45.7888 71.6847 45.5671C71.6847 42.2423 71.6911 38.9111 71.6784 35.5862C71.6784 35.4215 71.8431 35.1556 71.5074 35.0922C71.1781 35.0289 71.0261 35.1556 70.9184 35.4912C69.8482 38.8477 68.7525 42.1979 67.6822 45.5608C67.5682 45.9091 67.4163 46.0168 67.0616 45.9978C66.4093 45.9661 65.757 45.9661 65.111 45.9978C64.7564 46.0168 64.598 45.9091 64.4904 45.5608C63.4327 42.1853 62.3498 38.8097 61.2795 35.4405C61.2288 35.2696 61.2225 35.0796 60.9312 35.0796C60.6082 35.0859 60.4815 35.1366 60.4815 35.5039C60.5005 38.8477 60.4879 42.1853 60.5005 45.5291C60.5005 45.8901 60.4245 45.9978 60.0445 45.9978C56.8527 45.9788 53.6545 45.9851 50.4626 45.9978C50.0953 45.9978 49.9939 45.9028 50.0003 45.5355C50.0193 43.8192 50.0193 42.1029 50.0003 40.3867C49.9939 40.0447 50.0953 39.9624 50.4246 39.975C51.0769 40.0004 51.7292 39.9624 52.3752 39.994C52.7235 40.013 52.7805 39.8864 52.7805 39.5697C52.7742 37.2011 52.7805 34.8326 52.7805 32.4703Z" fill="#FE1E46"/>
<path d="M121.469 45.9853C117.714 45.9853 113.958 45.9789 110.203 45.9916C109.836 45.9916 109.734 45.9029 109.741 45.5293C109.76 43.813 109.76 42.0968 109.741 40.3805C109.734 40.0448 109.823 39.9498 110.159 39.9625C110.836 39.9878 111.52 39.9625 112.198 39.9752C112.457 39.9815 112.521 39.8928 112.521 39.6458C112.514 34.8707 112.514 30.0956 112.521 25.3141C112.521 25.0544 112.432 24.9911 112.185 24.9911C111.488 25.0038 110.792 24.9848 110.102 24.9974C109.842 25.0038 109.741 24.9468 109.741 24.6618C109.753 22.8885 109.753 21.1152 109.741 19.3357C109.741 19.0443 109.842 19 110.095 19C114.592 19.0063 119.088 19.0063 123.585 19C123.851 19 123.939 19.057 123.939 19.342C123.927 21.1026 123.927 22.8632 123.939 24.6238C123.939 24.9151 123.851 25.0038 123.559 24.9974C122.882 24.9784 122.198 24.9974 121.52 24.9848C121.273 24.9784 121.191 25.0481 121.191 25.3077C121.197 30.0829 121.197 34.858 121.191 39.6395C121.191 39.8802 121.241 39.9688 121.507 39.9688C123.344 39.9562 125.174 39.9562 127.011 39.9688C127.271 39.9688 127.328 39.8802 127.328 39.6395C127.315 38.3539 127.334 37.0683 127.315 35.7827C127.309 35.485 127.372 35.3773 127.701 35.3773C129.405 35.3963 131.102 35.3963 132.806 35.3773C133.129 35.3773 133.192 35.485 133.192 35.7827C133.179 39.0379 133.179 42.2867 133.192 45.5419C133.192 45.8966 133.097 45.9789 132.749 45.9789C128.98 45.9789 125.225 45.9853 121.469 45.9853Z" fill="#FE1E46"/>
<path d="M95.4592 19.0251C94.5725 21.3494 93.7112 23.6103 92.8499 25.8648C92.3939 27.0618 91.9316 28.2588 91.4693 29.462C91.2857 29.9434 91.5833 30.3677 92.109 30.3677C93.5592 30.3677 95.0095 30.3803 96.4535 30.3613C96.7891 30.355 96.8714 30.4563 96.8651 30.7857C96.8524 35.7128 96.8524 40.6336 96.8651 45.5607C96.8651 45.9154 96.7638 45.9977 96.4218 45.9977C92.8879 45.985 89.3541 45.985 85.8202 45.9977C85.4782 45.9977 85.4022 45.9027 85.4086 45.5734C85.4276 43.8445 85.4276 42.1155 85.4086 40.3803C85.4022 40.032 85.5226 39.9623 85.8392 39.975C86.4915 40.0003 87.1375 39.9686 87.7898 39.9876C88.0621 39.994 88.1761 39.937 88.1761 39.6266C88.1635 34.8832 88.1698 30.1333 88.1761 25.3899C88.1761 25.1049 88.1001 25.0035 87.8088 25.0099C87.1312 25.0289 86.4472 25.0035 85.7695 25.0225C85.5036 25.0289 85.4149 24.9529 85.4149 24.6742C85.4276 22.901 85.4212 21.1277 85.4212 19.3481C85.4212 19.1518 85.4276 19.0188 85.6936 19.0251C88.9234 19.0315 92.166 19.0251 95.4592 19.0251Z" fill="#FE1E46"/>
<path d="M96.8406 22.559C96.8406 21.4951 96.8406 20.4311 96.8406 19.3672C96.8406 19.2215 96.7773 19.0315 97.0496 19.0252C98.7912 19.0125 100.545 18.9492 102.211 19.6015C105.485 20.8744 107.385 23.2937 107.942 26.7199C108.373 29.3798 107.892 31.8813 106.207 34.0472C104.459 36.2955 102.091 37.3278 99.2788 37.3974C98.2465 37.4228 98.2465 37.4038 98.6139 36.4475C99.8171 33.2936 101.02 30.1334 102.224 26.9795C102.407 26.4919 102.129 26.0739 101.603 26.0739C100.153 26.0676 98.7025 26.0612 97.2586 26.0802C96.9293 26.0865 96.8279 25.9979 96.8343 25.6622C96.8533 24.6299 96.8406 23.5913 96.8406 22.559Z" fill="#FE1E46"/>
</svg>
