<svg width="184" height="64" viewBox="0 0 184 64" fill="none" xmlns="http://www.w3.org/2000/svg">
<path d="M72.9461 15V42.8414H68.079V41.57C66.6515 42.6979 64.8793 43.293 63.0644 43.2538C61.8363 43.2494 60.6217 42.9948 59.4941 42.5053C58.3665 42.0159 57.3492 41.3017 56.5035 40.4059C55.6578 39.5102 55.0013 38.4514 54.5737 37.2934C54.146 36.1355 53.956 34.9024 54.0151 33.6685C53.9439 32.4286 54.1249 31.1872 54.5471 30.0201C54.9693 28.853 55.6239 27.7848 56.4706 26.8809C57.3174 25.977 58.3387 25.2563 59.4719 24.7631C60.6052 24.2698 61.8265 24.0143 63.0613 24.0122C64.8385 23.9782 66.5758 24.5438 67.996 25.6187V15H72.9461ZM68.1512 33.667C68.1832 33.037 68.0857 32.4072 67.8647 31.8168C67.6437 31.2265 67.304 30.6884 66.8667 30.2361C66.4295 29.7839 65.9042 29.4273 65.3237 29.1886C64.7431 28.9499 64.1199 28.8342 63.4929 28.8488C62.8746 28.8475 62.2626 28.9731 61.6944 29.2181C61.1261 29.4631 60.6136 29.8222 60.1882 30.2735C59.7628 30.7247 59.4336 31.2586 59.2206 31.8424C59.0077 32.4262 58.9155 33.0476 58.9498 33.6685C58.9228 34.2837 59.0203 34.898 59.2366 35.4741C59.453 36.0501 59.7835 36.5759 60.2081 37.0195C60.6328 37.4631 61.1427 37.8152 61.7068 38.0544C62.271 38.2936 62.8776 38.4149 63.4898 38.411C64.1109 38.4275 64.7287 38.3157 65.305 38.0825C65.8814 37.8492 66.4041 37.4995 66.8407 37.055C67.2773 36.6105 67.6186 36.0806 67.8435 35.4981C68.0684 34.9156 68.172 34.2929 68.1481 33.6685L68.1512 33.667ZM77.9008 24.42H82.8416V42.8398H77.9008V24.42ZM104.829 24.42V42.2976C104.847 43.4785 104.622 44.6504 104.168 45.7397C103.714 46.829 103.041 47.8123 102.192 48.6278C101.343 49.4434 100.335 50.0736 99.232 50.479C98.1291 50.8845 96.9548 51.0563 95.7828 50.9838C93.9187 51.0724 92.0772 50.5439 90.5404 49.4791C89.0036 48.4144 87.8562 46.8723 87.2741 45.089L91.8141 43.3805C92.0482 44.238 92.5702 44.9876 93.2913 45.5021C94.0125 46.0166 94.8885 46.2641 95.7705 46.2028C96.3116 46.2428 96.8549 46.1668 97.3645 45.9797C97.8742 45.7926 98.3385 45.4987 98.7266 45.1175C99.1148 44.7363 99.418 44.2764 99.6161 43.7684C99.8142 43.2605 99.9028 42.7159 99.8758 42.1709V40.6694C98.5443 41.7292 96.8859 42.2866 95.1884 42.2451C94.0205 42.2452 92.8646 42.008 91.7901 41.5476C90.7157 41.0872 89.7448 40.4132 88.9357 39.566C88.1267 38.7188 87.4962 37.7159 87.0822 36.6175C86.6681 35.5191 86.479 34.3479 86.5262 33.1742C86.4735 31.9998 86.6566 30.8267 87.0647 29.7251C87.4727 28.6234 88.0972 27.6157 88.901 26.7622C89.7047 25.9086 90.6712 25.2267 91.7428 24.7572C92.8143 24.2876 93.9689 24.04 95.1377 24.0292C96.8837 23.9965 98.5836 24.5938 99.9296 25.713V24.4354H104.826V24.42H104.829ZM100.023 33.1835C100.039 32.61 99.9397 32.0393 99.7322 31.505C99.5247 30.9706 99.2128 30.4835 98.815 30.0724C98.4173 29.6613 97.9416 29.3345 97.4162 29.1114C96.8908 28.8882 96.3263 28.7732 95.7559 28.7731C95.1856 28.773 94.621 28.8878 94.0955 29.1108C93.57 29.3338 93.0943 29.6604 92.6964 30.0713C92.2984 30.4823 91.9864 30.9693 91.7787 31.5035C91.571 32.0378 91.4718 32.6085 91.487 33.1819C91.5168 34.3005 91.9796 35.3633 92.7768 36.1438C93.574 36.9244 94.6426 37.3612 95.7551 37.3612C96.8677 37.3612 97.9363 36.9244 98.7335 36.1438C99.5307 35.3633 99.9934 34.3005 100.023 33.1819V33.1835ZM109.77 24.42H114.712V42.8398H109.77V24.42ZM125.221 24.42H131V29.1346H125.217V35.9594C125.196 36.2502 125.237 36.5422 125.338 36.8156C125.439 37.0889 125.597 37.3372 125.802 37.5434C126.007 37.7495 126.254 37.9088 126.526 38.0103C126.797 38.1118 127.088 38.1531 127.377 38.1314H130.998V42.846H126.34C125.544 42.898 124.745 42.7803 123.997 42.5004C123.249 42.2206 122.568 41.7849 121.998 41.222C121.429 40.6591 120.985 39.9816 120.694 39.2339C120.403 38.4862 120.272 37.6852 120.31 36.8832V29.1285H117.695V26.5765L122.485 20.6137H125.219L125.221 24.42ZM80.3597 15.034H104.827V18.9206H80.3612L80.3597 15.034Z" fill="black"/>
<path d="M113.654 17.3883L109.678 13H108.391V21.806H109.665L113.654 17.3883Z" fill="#FFBB00"/>
</svg>
